<svg width="150" height="109" viewBox="0 0 150 109" fill="none" xmlns="http://www.w3.org/2000/svg">
<g clip-path="url(#clip0_48_39)">
<path d="M117.306 36.0268L118.432 32.443L114.705 32.5591C114.391 32.5591 112.102 32.4946 109.881 30.8944C110.047 30.9105 110.212 30.9332 110.381 30.9332C112.667 30.9332 114.877 29.5653 115.764 27.6104L117.367 24.078C115.358 24.1038 113.52 23.8522 113.52 23.8522C113.504 23.849 112.056 23.6652 110.381 21.9652C109.18 20.7457 107.693 20.1005 106.083 20.1005C105.379 20.1005 104.749 20.2264 104.207 20.3974C104.291 20.1102 104.372 19.8198 104.418 19.5198C104.931 16.2134 102.788 13.6907 102.788 13.694L99.9867 10.2454L98.2499 14.2972C98.2436 14.3102 97.8051 15.2585 97.0196 15.7231C96.7827 14.5327 96.2016 13.1939 94.9583 11.9132C92.6143 9.50019 89.7608 9.14227 88.2677 9.14227C87.5762 9.14227 87.0827 9.21641 86.9626 9.23582L83.5798 9.89708C83.7747 9.14543 84.1902 7.83898 84.9498 6.66141L86.8166 3.77105L82.119 4.30327L80.6225 1.14523L77.7268 2.62914L75.0487 0L72.3771 2.62914L69.4715 1.14523L67.9782 4.30327L63.2841 3.77105L65.1541 6.66141C65.9137 7.83898 66.3292 9.14227 66.5207 9.89377L63.294 9.26152L63.1835 9.24212C63.0212 9.21641 62.5311 9.14227 61.8362 9.14227C60.3431 9.14227 57.4896 9.50351 55.1522 11.9132C53.9055 13.1906 53.3246 14.5327 53.0843 15.7231C52.3052 15.265 51.8702 14.3294 51.8702 14.3294L50.1301 10.2552L47.2832 13.7262C46.9359 14.1746 45.2186 16.5455 45.6859 19.5264C45.7348 19.8232 45.8127 20.1134 45.8971 20.4005C45.3583 20.2296 44.7282 20.1038 44.0239 20.1038C42.4138 20.1038 40.9269 20.749 39.7226 21.9684C38.0539 23.662 36.6127 23.8522 36.6257 23.8522C36.6257 23.8522 35.103 24.1233 32.7463 24.0813L34.3404 27.6137C35.2265 29.5719 37.4405 30.9363 39.7226 30.9363C39.8947 30.9363 40.0602 30.9137 40.229 30.8976C38.015 32.4976 35.7265 32.5621 35.4506 32.5655L31.6523 32.443L32.8015 36.0236C33.3793 37.8689 35.3108 40.927 39.0116 41.2561C38.6091 42.9334 37.7164 44.8109 35.7557 45.6206L32.9282 46.7788L34.4701 49.4466C35.34 50.8855 37.3821 52.5693 40.2907 52.5693C40.9204 52.566 41.5274 52.5048 42.1119 52.3823C42.2611 53.0403 42.4495 53.6982 42.6702 54.35C43.537 56.9112 42.7902 58.6986 42.7806 58.7179L41.3846 61.6243L44.5011 62.4406C44.54 62.4535 45.4814 62.7081 46.6599 62.7081C47.1956 62.7081 47.7052 62.6535 48.1857 62.5406C48.5493 62.4566 48.8966 62.3436 49.2309 62.2083C49.6335 62.9276 50.1237 63.5824 50.6952 64.1695C52.6915 66.2051 55.519 67.2374 59.103 67.2374H59.1159L61.6741 67.2053L56.3891 69.3859L60.4014 71.3118C61.8591 72.0182 63.5894 72.8537 65.3487 73.4925L64.8488 74.8538L66.2317 75.4796C66.3552 75.5345 69.0138 76.7184 73.4354 76.97C73.4354 76.97 74.5033 77.0184 75.0908 77.0184C75.6785 77.0184 76.7335 76.9668 76.7335 76.9668C81.1257 76.7088 83.765 75.5375 83.8885 75.4796L85.2744 74.8505L84.768 73.4859C86.5795 72.8278 88.3715 71.9601 89.7674 71.2828L93.7051 69.3828L88.4364 67.1987L91.0043 67.231C94.5913 67.231 97.4222 66.1986 99.4153 64.1599C99.9835 63.576 100.474 62.9212 100.88 62.2019C101.214 62.3374 101.564 62.4502 101.928 62.534C102.405 62.647 102.915 62.7018 103.45 62.7018C104.609 62.7018 105.56 62.447 105.587 62.4406L108.716 61.6179L107.352 58.7661C107.32 58.692 106.573 56.9081 107.44 54.3435C107.661 53.6887 107.846 53.0305 107.995 52.3757C108.583 52.4984 109.196 52.5628 109.83 52.5628C113.533 52.5628 115.309 49.9724 115.653 49.411L117.179 46.7724L114.352 45.6176C112.387 44.8078 111.498 42.927 111.099 41.2529C114.748 40.9431 116.708 37.885 117.306 36.0268ZM66.7675 11.1294L66.7285 11.139L66.7608 11.097L66.7675 11.1294Z" fill="#F6F7F8"/>
<path d="M75.052 10.9712C72.0589 10.9745 69.8158 11.9487 69.3257 13.094L75.052 15.3391L80.7786 13.094C80.2917 11.9487 78.0484 10.9745 75.052 10.9712Z" fill="#F6F7F8"/>
<path d="M75.1105 70.4083H75.104H75.0553H75.0001H74.9969C73.1823 70.4212 70.6858 70.0501 69.4815 69.7019L68.0337 73.5955C68.988 73.9342 72.2214 74.5794 75.0553 74.5794C77.8827 74.5794 81.1195 73.931 82.0706 73.5955L80.626 69.7019C79.4182 70.0535 76.9251 70.4212 75.1105 70.4083Z" fill="#F6F7F8"/>
<path d="M86.067 66.5376C84.989 67.144 82.5838 68.0537 81.1846 68.4764L82.3597 71.6926C84.525 71.1055 86.3104 70.4183 87.7874 69.6828L85.3494 68.8764L86.067 66.5376Z" fill="#F6F7F8"/>
<path d="M64.0403 66.5376L64.761 68.8764L62.3198 69.6828C63.7936 70.4183 65.5888 71.1055 67.7443 71.6926L68.9195 68.4764C67.5269 68.0537 65.1181 67.141 64.0403 66.5376Z" fill="#F6F7F8"/>
<path d="M75.0524 7.24863C77.3084 7.24863 79.5225 7.78402 81.2234 8.72608C81.3794 8.20662 81.5968 7.57753 81.8923 6.91958L81.2495 6.99686L80.5742 7.06785L80.2885 6.45817L79.4284 4.65167L77.8604 5.4647L77.2501 5.77435L76.7631 5.29684L75.0587 3.61938L73.3578 5.29684L72.8707 5.77435L72.2605 5.4647L70.6829 4.65167L69.8324 6.45817L69.5401 7.06785L68.8648 6.99686L68.2222 6.91958C68.5175 7.58084 68.7319 8.20662 68.8909 8.72608C70.5952 7.78402 72.8027 7.24863 75.0524 7.24863Z" fill="#F6F7F8"/>
<path d="M109.498 28.1269C109.79 28.2269 110.089 28.2719 110.384 28.2719C111.66 28.2719 112.894 27.4526 113.319 26.5139C113.319 26.5139 110.979 26.3719 108.463 23.8333C107.661 23.0106 106.814 22.7654 106.086 22.7654C104.957 22.7654 104.109 23.359 104.109 23.359C107.148 24.9655 107.768 27.5462 109.498 28.1269Z" fill="#F6F7F8"/>
<path d="M39.7191 28.2719C40.0144 28.2719 40.3132 28.2269 40.5988 28.1269C42.3357 27.5462 42.9588 24.9655 45.9973 23.359C45.9973 23.359 45.1469 22.7654 44.0235 22.7654C43.2934 22.7654 42.4459 23.0106 41.6408 23.8333C39.1282 26.3719 36.7876 26.5139 36.7876 26.5139C37.2064 27.4526 38.4432 28.2719 39.7191 28.2719Z" fill="#F6F7F8"/>
<path d="M110.323 38.614C110.375 38.6172 110.421 38.6172 110.476 38.6172C113.66 38.6172 114.741 35.2267 114.741 35.2267H114.68C114.095 35.2267 109.359 35.0913 106.012 30.862C103.808 28.0814 102.003 25.6362 98.4352 24.6748L98.0846 24.6135L98.0068 24.2587C97.9093 23.7167 98.2826 23.2103 99.1301 22.6619C104.051 19.4585 100.711 15.3745 100.711 15.3745C100.711 15.3745 99.3053 18.6424 96.1595 18.6424C96.0849 18.6424 96.0039 18.6392 95.9259 18.6392C95.5687 18.6199 95.2247 18.6069 94.8774 18.5328L94.2962 18.4197C94.2962 18.4197 95.1922 15.9972 93.0302 13.7714C91.4005 12.0906 89.417 11.8066 88.2711 11.8066C87.6933 11.8066 87.3264 11.8809 87.3264 11.8809C88.4139 13.2939 89.1996 15.6359 87.9432 17.081C86.859 18.3231 84.21 18.3842 84.21 20.236C84.21 21.0199 84.9469 21.936 86.2715 22.7587C90.2547 25.2521 94.2085 28.5588 95.8512 32.9911C97.9061 38.5205 95.5914 42.1882 92.2868 44.2916C92.2868 44.2916 93.3224 45.2398 94.8255 45.3593C95.1306 45.3884 95.4291 45.4013 95.7084 45.4013C98.8801 45.4013 100.519 43.9239 100.519 43.9239C100.519 43.9239 100.25 45.9657 98.5977 47.8625C97.0751 49.6143 95.0753 50.6433 92.0271 50.6884C92.0271 50.6884 91.9298 52.0951 93.2801 53.3111C94.1438 54.0788 96.1402 54.3306 96.1402 54.3306C96.1402 54.3306 92.4036 55.082 91.9914 60.5662C91.7673 63.5373 91.0044 64.5695 91.0044 64.5695H91.0726C99.7435 64.5695 99.5194 57.179 99.5194 57.179C99.5194 57.179 100.123 59.3662 102.542 59.9371C102.834 60.0146 103.146 60.0437 103.444 60.0437C104.223 60.0437 104.899 59.863 104.899 59.863C104.899 59.863 103.632 57.208 104.889 53.4949C105.931 50.4143 105.762 48.1304 105.762 48.1304C105.762 48.1304 106.931 49.8852 109.827 49.9015H109.856C112.268 49.9015 113.319 48.0852 113.319 48.0852C107.538 45.7013 108.109 38.0044 108.109 38.0044C108.109 38.0044 108.859 38.559 110.323 38.614ZM108.583 46.6528C106.233 45.5013 104.746 42.443 104.386 41.3398C103.996 47.4045 101.016 51.6144 97.5328 55.666C95.7247 57.766 95.0948 59.808 95.0948 59.808C95.0948 59.808 95.4422 57.4951 97.0069 55.6111C100.256 51.7304 103.344 46.9013 103.574 41.3173C103.733 37.4203 102.724 34.259 101.149 31.6556C102.029 34.3686 101.906 37.6913 98.9157 40.7914C98.9157 40.7914 104.866 33.7042 96.5461 26.4394C93.2152 23.6747 89.5729 21.9683 87.6967 20.7585C94.4748 22.9555 97.7828 20.536 97.7828 20.536C95.6175 22.4007 92.8159 22.3683 91.0793 22.1005C91.5499 22.3296 92.04 22.5683 92.5692 22.8489C98.2826 25.9328 103.418 31.0072 104.295 38.0365V37.9817C105.626 44.8819 108.583 46.6528 108.583 46.6528Z" fill="#F6F7F8"/>
<path d="M53.9641 54.3306C53.9641 54.3306 55.9606 54.0822 56.8241 53.3111C58.1713 52.0951 58.0772 50.6884 58.0772 50.6884C55.0256 50.6465 53.0292 49.6143 51.4968 47.8659C49.8575 45.9691 49.5848 43.9271 49.5848 43.9271C49.5848 43.9271 51.2241 45.4044 54.3925 45.4044C54.6783 45.4044 54.9737 45.3914 55.2789 45.3625C56.7818 45.2432 57.8206 44.2946 57.8206 44.2946C54.516 42.1914 52.1981 38.5205 54.2497 32.9911C55.8957 28.562 59.8463 25.2521 63.8296 22.7587C65.154 21.936 65.8909 21.0231 65.8909 20.236C65.8909 18.3842 63.2452 18.3231 62.161 17.081C60.9046 15.6359 61.6935 13.2905 62.7777 11.8809C62.7777 11.8809 62.4174 11.8066 61.8363 11.8066C60.6938 11.8066 58.7101 12.0906 57.0805 13.7714C54.912 15.9972 55.8112 18.4197 55.8112 18.4197L55.23 18.5328C54.8828 18.6069 54.5355 18.6199 54.1816 18.6392C54.1005 18.6392 54.0289 18.6424 53.951 18.6424C50.7989 18.6424 49.3999 15.3778 49.3999 15.3778C49.3999 15.3778 46.0593 19.4619 50.9777 22.6651C51.8248 23.2135 52.1947 23.72 52.0975 24.2619L52.0195 24.6168L51.6625 24.678C48.1013 25.6394 46.2931 28.0847 44.089 30.8654C40.7484 35.0881 36.0185 35.2267 35.4278 35.2267H35.3628C35.3628 35.2267 36.4438 38.6172 39.6284 38.6172C39.6804 38.6172 39.7257 38.6172 39.781 38.614C41.2452 38.5624 41.9984 38.0044 41.9984 38.0044C41.9984 38.0044 42.5631 45.698 36.788 48.0852C36.788 48.0852 37.8398 49.9015 40.2518 49.9015H40.2808C43.1799 49.8852 44.3454 48.1304 44.3454 48.1304C44.3454 48.1304 44.1765 50.4143 45.2152 53.4949C46.4716 57.208 45.2122 59.863 45.2122 59.863C45.2122 59.863 45.8874 60.0437 46.6631 60.0437C46.965 60.0437 47.2735 60.0146 47.5625 59.9371C49.9777 59.3662 50.5847 57.179 50.5847 57.179C50.5847 57.179 50.3639 64.5695 59.0348 64.5695H59.0965C59.0965 64.5695 58.3369 63.5373 58.1162 60.5662C57.7005 55.082 53.9641 54.3306 53.9641 54.3306ZM52.5714 55.666C49.0882 51.6144 46.1114 47.4045 45.7185 41.3398C45.3582 42.44 43.8778 45.5013 41.5276 46.6528C41.5276 46.6528 44.4816 44.8819 45.8094 37.9817V38.0365C46.6892 31.0104 51.8216 25.9328 57.5384 22.8489C58.0609 22.5652 58.5575 22.3263 59.0251 22.1005C57.2882 22.3683 54.4868 22.4007 52.3216 20.536C52.3216 20.536 55.6296 22.9555 62.4043 20.7585C60.528 21.9683 56.889 23.6747 53.5583 26.4394C45.2348 33.7042 51.1885 40.7914 51.1885 40.7914C48.1954 37.6882 48.0753 34.3686 48.9551 31.6556C47.3773 34.2622 46.3709 37.4203 46.5332 41.3173C46.7606 46.9013 49.8478 51.7304 53.0909 55.6111C54.6588 57.4919 55.0126 59.808 55.0126 59.808C55.0126 59.808 54.3762 57.766 52.5714 55.666Z" fill="#F6F7F8"/>
<path d="M68.6413 27.3105C68.7842 27.4623 68.9236 27.6268 69.0568 27.7912C69.0894 27.83 69.1185 27.8655 69.1509 27.9107C69.2743 28.0752 69.4011 28.2493 69.5211 28.4268C69.5469 28.4623 69.573 28.5043 69.6022 28.5461C69.7484 28.7655 69.8846 28.9913 70.0211 29.2236C71.2709 31.369 73.2738 32.6495 75.0495 32.6528C76.8286 32.6495 78.8249 31.369 80.0813 29.2236C80.2207 28.9849 80.3604 28.7527 80.5065 28.5364C80.5292 28.5043 80.552 28.4752 80.5714 28.4429C80.6947 28.2591 80.8246 28.0785 80.961 27.9041C80.9902 27.8655 81.0163 27.8332 81.0421 27.8011C81.1818 27.63 81.3246 27.4623 81.4706 27.3075C81.4966 27.2816 81.5161 27.2591 81.5388 27.2397C82.1751 26.5913 82.9348 26.0977 83.9281 25.8234L83.4866 25.5686H83.4605L81.7012 24.5525L79.8931 23.5234L75.0624 26.1365L75.0495 26.1266L75.0397 26.1365L70.206 23.5234L68.4011 24.5493L66.6383 25.5655H66.619L66.1709 25.8202C67.1674 26.0945 67.9239 26.5816 68.5634 27.23C68.5926 27.2559 68.6121 27.2849 68.6413 27.3105ZM73.0953 27.1009H75.1404H77.1822V28.4947C76.7017 27.9107 75.7669 28.03 75.7669 28.03V30.0397C75.7669 30.0397 75.8027 31.027 76.15 31.456H75.1404H74.1276C74.4813 31.03 74.5139 30.0397 74.5139 30.0397V28.03C74.5139 28.03 73.5822 27.9107 73.0953 28.4947V27.1009Z" fill="#F6F7F8"/>
<path d="M74.6329 24.3973V16.2389L69.4062 14.4775L70.7861 22.3842L74.6329 24.3973ZM73.5096 18.2421V19.5519L73.2564 19.4358C73.2433 19.426 72.8733 19.3423 72.2241 18.8326C71.1527 18.0067 71.1334 17.2453 71.1334 17.2453L73.5096 18.2421Z" fill="#F6F7F8"/>
<path d="M79.3207 22.3842L80.694 14.4775L75.4707 16.2389V24.3973L79.3207 22.3842ZM76.5939 18.2421L78.9701 17.2487C78.9701 17.2487 78.9507 18.0099 77.8761 18.8358C77.2301 19.3453 76.8568 19.4294 76.8439 19.4389L76.5907 19.5551V18.2421H76.5939Z" fill="#F6F7F8"/>
<path d="M67.2406 43.311C67.7502 43.495 68.3671 43.5337 68.682 43.5337C68.6949 43.495 68.7112 43.4466 68.7275 43.3885C68.7567 43.295 68.7826 43.2046 68.8021 43.1014C68.8896 42.6498 68.9222 42.1369 68.9286 41.8078C68.7144 41.6755 68.4125 41.4401 68.2436 41.0885C68.0489 40.6819 67.773 40.4949 67.3671 40.4949C66.8414 40.4949 66.2765 40.8078 66.0363 40.9561C65.8448 42.0821 66.6789 43.1046 67.2406 43.311Z" fill="#F6F7F8"/>
<path d="M78.8018 38.9812C77.8311 40.0296 75.932 41.8555 75.8378 41.9491L75.7242 42.0651L69.722 41.9716C69.7186 42.562 69.6212 43.0652 69.5271 43.433C69.5109 43.4943 69.4946 43.5588 69.4785 43.6234L76.6202 44.8977C77.3637 44.3815 79.4089 42.8975 80.2009 42.317C79.6229 41.4782 79.568 40.4846 79.6978 39.7844C79.3212 39.5425 79.0322 39.2716 78.8018 38.9812Z" fill="#F6F7F8"/>
<path d="M79.6155 31.8076C78.2325 33.172 76.9049 33.6753 75.7201 33.7915C75.5057 33.814 75.2883 33.8269 75.0675 33.8269H75.0512H75.0381C74.8174 33.8269 74.5968 33.814 74.3825 33.7915C74.1747 33.7721 73.9573 33.7399 73.7397 33.6915C73.6618 33.998 73.5643 34.6399 73.8437 35.2464C74.0937 35.798 74.6033 36.2078 75.3468 36.4787L75.5966 36.5753L75.6 36.8432C75.6 36.9239 75.6583 38.6594 77.5639 39.14C77.8755 38.8207 78.1579 38.5335 78.3658 38.2948C77.9762 37.3851 78.1806 36.4562 78.7455 36.0012C78.7194 36.098 78.473 38.3755 80.3102 39.2205L80.6121 39.3625L80.5212 39.682C80.492 39.7787 79.8786 41.982 82.1022 42.8014L82.495 42.9499L82.3198 43.3304C82.2808 43.4143 81.4075 45.4145 83.4623 46.5499H87.9194V43.0336C86.3354 42.84 85.6634 41.5756 85.4913 40.6788C84.7543 40.553 84.1832 40.2368 83.7936 39.7207C82.8586 38.4982 83.6637 37.3787 83.6734 37.3173C83.6701 37.3271 83.6734 38.5207 84.4135 39.2562C84.7803 39.6109 85.2155 39.8852 85.8744 39.9466L86.199 39.9756L86.2282 40.3046C86.2348 40.3755 86.4132 41.9886 87.9228 42.2434L87.9194 35.0624C87.9194 33.9496 88.2474 32.8303 88.6402 31.7979H79.6155V31.8076Z" fill="#F6F7F8"/>
<path d="M67.6209 35.0975L67.501 39.6718L68.0235 39.7493L69.3026 35.3621L68.6532 34.0137L67.6209 35.0975Z" fill="#F6F7F8"/>
<path d="M81.7231 56.0756C81.7621 56.0756 81.8074 56.0821 81.8498 56.0919C82.645 56.3176 82.8464 59.1694 84.2423 59.4243C84.3785 59.4532 84.505 59.4598 84.6156 59.4598C85.0181 59.4598 85.2582 59.2887 85.518 58.9853C85.518 58.9853 84.8167 57.8885 84.291 57.1499C83.5929 56.1822 83.0509 55.0112 81.7522 55.0112C81.7231 55.0112 81.6841 55.0112 81.6517 55.0144C81.2231 55.0369 80.9603 55.2433 80.9603 55.2433C80.4343 54.9143 79.944 54.8015 79.4995 54.8015C78.6846 54.8015 78.0515 55.1724 77.7367 55.1724H77.7236L74.8215 54.8887C74.367 54.8467 74.01 54.3917 73.8801 54.2144C73.8475 54.166 73.8312 54.1369 73.8312 54.1369C73.8312 54.0595 73.8312 53.979 73.8249 53.9079C73.7274 51.5497 71.8902 50.5401 71.2375 50.524C71.2375 50.524 71.3154 50.0754 71.137 49.9045L70.4974 50.6756L68.3971 49.6272L69.8935 51.3659L68.6242 52.7821C68.4653 52.9433 68.4848 53.1627 68.5496 53.2531L69.0983 53.7337L69.7929 53.3143C69.8287 53.2884 69.8903 53.2821 69.9681 53.2821C70.1598 53.2821 70.4487 53.3304 70.7084 53.3304C70.9908 53.3304 71.2375 53.2692 71.2669 53.0047C71.1792 53.879 70.3643 55.3983 70.8999 56.5917L71.2961 57.4919L68.7314 57.1242L67.5303 59.1403C67.1603 59.8114 67.1017 60.5371 67.4589 60.9307L67.907 61.4889C67.907 61.4889 68.5367 60.8243 68.6795 60.3887L68.475 60.1662C68.3028 59.9791 68.3127 59.8114 68.4167 59.608L69.1696 58.3662L72.1985 59.0758L72.3574 58.8048C72.5621 58.4662 72.8574 58.363 73.1822 58.363C73.3151 58.363 73.4515 58.3791 73.5943 58.4016C74.156 58.5112 75.0812 58.6596 76.0063 58.6596C77.0225 58.6596 78.0288 58.4791 78.5645 57.8821C79.6616 59.4984 81.8854 59.7564 81.7102 60.5758L81.1258 63.3437C81.5121 63.3275 81.8854 63.3018 82.2392 63.2534L82.7943 60.3726C82.856 60.0596 82.9145 59.6371 82.9145 59.6371C82.7003 59.421 82.1808 58.9628 81.8886 58.408C81.4958 57.6596 81.7102 57.2694 81.3432 56.2951C81.3563 56.3015 81.4665 56.0756 81.7231 56.0756ZM70.3934 52.0304C70.2442 52.0274 70.137 51.9015 70.1435 51.7529C70.1566 51.6111 70.2766 51.4983 70.4228 51.5111C70.5721 51.5175 70.6792 51.6465 70.6728 51.7884C70.6597 51.9304 70.5364 52.04 70.3934 52.0304Z" fill="#F6F7F8"/>
<path d="M66.2574 58.6952C66.2574 58.6952 67.2606 58.2855 67.3515 57.992L67.2184 57.6596C67.1242 57.4435 67.1373 57.208 67.3191 57.0789L68.4033 56.3337L70.2148 56.6789C70.2148 56.6789 69.8868 56.2725 69.9194 55.7273L68.1924 55.3628L66.5627 56.3499C65.8648 56.8693 65.8129 57.7176 66.0432 58.2211L66.2574 58.6952Z" fill="#F6F7F8"/>
<path d="M79.0605 63.3854C79.3851 63.3725 79.7422 63.3659 80.1351 63.3659C80.1351 63.3659 81.0668 60.6596 81.1187 60.5723C80.596 60.3434 79.5118 59.7725 79.093 59.511C79.369 59.9209 80.0409 60.3917 79.9078 60.7532L79.0605 63.3854Z" fill="#F6F7F8"/>
<path d="M87.9295 47.334H62.1768V56.96C62.1768 60.8956 65.0432 63.3602 69.2731 63.3602C72.8084 63.3602 73.74 63.4955 75.0549 64.7925C75.9605 63.8956 76.7105 63.56 78.2491 63.4343L78.2849 63.2859L79.0964 60.7923C79.051 60.7375 77.7232 59.2373 77.7232 59.2373C77.1974 59.4116 76.7558 59.4407 76.0125 59.4407C75.2496 59.4407 74.3892 59.3536 73.4576 59.1794C73.3635 59.1568 73.276 59.1503 73.1881 59.1503C73.0745 59.1503 73.0648 59.16 73.0355 59.2148L72.8732 59.4794L72.5779 59.9634L72.0228 59.8375L69.5523 59.2602L69.2148 59.8148L69.2667 59.873L69.5685 60.202L69.4355 60.6311C69.2538 61.1923 68.6629 61.8471 68.4843 62.0279L67.8675 62.6859L67.306 61.9795L66.8838 61.4536C66.4392 60.9602 66.3352 60.202 66.5852 59.4084C66.5787 59.4148 66.5691 59.4182 66.5592 59.4182L65.8613 59.7052L65.5464 59.0278L65.3256 58.5471C64.9458 57.7019 65.0854 56.4664 66.1079 55.7212L68.098 54.6051L69.9907 54.976C70.036 54.7955 70.1042 54.1503 70.1593 53.9857C70.1236 53.9824 70.0879 53.9728 70.0523 53.9728L68.9614 54.376L67.9097 53.6533C67.9097 53.6533 67.4975 53.2599 67.8707 52.8663L68.89 51.334L66.3093 48.1145L70.2763 49.7338L70.5391 49.4081L71.0748 48.7726L71.6819 49.3468C71.8541 49.5113 71.9514 49.7147 71.9999 49.9178C73.094 50.3404 75.0515 51.5888 75.2236 53.6179L74.61 53.8631V53.8792C74.7496 54.0437 74.8664 54.1115 74.9023 54.1179L77.733 54.3955C77.8044 54.3825 77.8953 54.3501 77.9959 54.321C78.3466 54.2019 78.8756 54.0308 79.5023 54.0308C80.0119 54.0308 80.5054 54.1469 80.9792 54.3664C81.1546 54.3019 81.3688 54.2535 81.6156 54.2373L81.7518 54.234C83.2678 54.234 84.021 55.3599 84.6248 56.2567C84.7255 56.4115 84.8261 56.56 84.9301 56.7051C85.4592 57.4471 86.1506 58.5341 86.1798 58.5795L86.4915 59.0632L86.1084 59.5052C85.813 59.8439 85.3715 60.2407 84.6119 60.2407C84.456 60.2407 84.2839 60.2246 84.099 60.1891C83.9365 60.16 83.7907 60.1116 83.6477 60.0536C83.6248 60.202 83.5958 60.3795 83.5665 60.5311L83.0697 63.1052C86.0403 62.3795 87.9264 60.1504 87.9264 56.9632L87.9295 47.334Z" fill="#FFDD2D"/>
<path d="M62.1771 46.5597H82.2035C81.2035 45.534 81.2164 44.234 81.473 43.3888C81.1808 43.2502 80.9405 43.0823 80.7263 42.9016C79.9439 43.4759 77.5546 45.2049 76.9314 45.6372L76.7984 45.7275L68.9389 44.3145H68.7798C68.5916 44.3145 68.3156 44.3081 68.0138 44.2727C67.9293 44.6243 67.6242 44.8663 67.2736 44.8663C67.2346 44.8663 67.1892 44.8631 67.1471 44.8533C66.9426 44.8177 66.7639 44.7147 66.6439 44.5436C66.5204 44.3759 66.4718 44.1759 66.5075 43.9695L66.5367 43.8017C65.7252 43.2339 64.9785 41.9661 65.3097 40.6307L65.3421 40.4886L65.4557 40.408C65.4718 40.395 65.6083 40.3049 65.8095 40.1886L65.2383 40.1016C65.0239 40.0629 64.8811 39.866 64.9137 39.6564C64.9493 39.4434 65.1506 39.2918 65.3616 39.3339L66.7218 39.5468L66.8452 34.7853L68.8707 32.6561L70.1337 35.2982L68.7995 39.8789L70.0006 40.066C70.2116 40.0984 70.3576 40.295 70.3252 40.5112C70.2926 40.7016 70.1305 40.8337 69.9389 40.8337C69.9193 40.8337 69.8966 40.8337 69.8773 40.8307L68.9 40.6725C68.9131 40.7016 68.9325 40.7177 68.9455 40.75C69.0495 40.9628 69.2798 41.1177 69.4162 41.1823L75.4087 41.2757C75.6621 41.0307 76.2918 40.4176 76.9378 39.7693C75.464 39.2144 74.9285 37.9498 74.8375 37.1112C74.0129 36.7626 73.4448 36.2402 73.13 35.5596C72.7468 34.7176 72.8833 33.8757 72.9838 33.4658C72.1853 33.1756 71.3445 32.6465 70.4875 31.8013H61.4629C61.8492 32.8335 62.1771 33.9529 62.1771 35.066V46.5597Z" fill="#FFDD2D"/>
<path d="M70.4253 51.511C70.2792 51.4981 70.1557 51.611 70.1461 51.753C70.1364 51.9013 70.2466 52.0272 70.3961 52.0303C70.5389 52.0433 70.6654 51.9335 70.6784 51.7885C70.6784 51.6465 70.5745 51.5144 70.4253 51.511Z" fill="black"/>
<path d="M87.8939 68.9662L86.4104 68.4016L86.8193 66.879L87.2706 65.2178C87.2706 65.2178 84.6412 66.6337 80.9371 67.6984C79.8853 67.9984 79.0899 68.1339 79.0899 68.1339V69.263C79.0899 69.263 77.1096 69.605 75.1069 69.605H75.084H75.0549H75.016H74.9931C72.9901 69.605 71.0101 69.263 71.0101 69.263V68.1339C71.0101 68.1339 70.2113 67.9984 69.1629 67.6984C65.4588 66.6337 62.8326 65.2178 62.8326 65.2178L63.2773 66.879L63.6962 68.4016L62.2093 68.9662L60.5601 69.5791C62.4527 70.4857 65.0725 71.8082 67.4716 72.4598L66.9067 73.9952C66.9067 73.9952 69.9484 75.3727 75.016 75.3857V75.389H75.0321H75.0549H75.0743H75.0874V75.3857C80.1612 75.3727 83.1997 73.9952 83.1997 73.9952L82.6316 72.4598C85.0307 71.8082 87.6569 70.4857 89.5398 69.5791L87.8939 68.9662ZM62.3196 69.6823L64.7609 68.8758L64.0403 66.5371C65.1147 67.1435 67.5267 68.0532 68.9225 68.4758L67.7441 71.6921C65.5887 71.1018 63.7934 70.4146 62.3196 69.6823ZM75.0549 74.5793C72.2209 74.5793 68.9842 73.9307 68.0331 73.5952L69.481 69.7016C70.6821 70.05 73.1818 70.4211 74.9963 70.4082H74.9997H75.0549H75.1035H75.1101C76.9248 70.4211 79.4179 70.05 80.6254 69.7016L82.0701 73.5952C81.1188 73.9341 77.8855 74.5793 75.0549 74.5793ZM82.3589 71.6921L81.1839 68.4758C82.5831 68.0532 84.9885 67.1435 86.0661 66.5371L85.3489 68.8758L87.7867 69.6823C86.3096 70.4146 84.5243 71.1018 82.3589 71.6921Z" fill="black"/>
<path d="M75.0517 8.19066C78.0709 8.19066 80.4862 9.18414 81.8202 10.2454C81.8202 10.2454 82.2164 7.87454 83.5701 5.78094L81.1386 6.05511L79.8661 3.36792L77.4217 4.61946L75.0517 2.29053L72.6884 4.61946L70.2408 3.36792L68.9715 6.05511L66.54 5.78094C67.8937 7.87454 68.2899 10.2454 68.2899 10.2454C69.6273 9.18414 72.036 8.19066 75.0517 8.19066ZM68.8611 6.997L69.5364 7.06799L69.8285 6.45831L70.6792 4.65181L72.2568 5.46152L72.867 5.77117L73.3541 5.29383L75.0551 3.61637L76.7594 5.29383L77.2463 5.77117L77.8565 5.46152L79.4245 4.65181L80.2848 6.45831L80.5705 7.06799L81.2458 6.997L81.8884 6.91954C81.5931 7.58098 81.3757 8.20674 81.2197 8.72604C79.5186 7.78415 77.3047 7.24859 75.0487 7.24859C72.802 7.24859 70.5913 7.78415 68.884 8.72604C68.7249 8.20674 68.5106 7.57765 68.2151 6.91954L68.8611 6.997Z" fill="black"/>
<path d="M110.471 39.6529C114.377 39.6529 115.682 35.7044 115.737 35.5366L116.172 34.1464L114.708 34.1914H114.701C114.185 34.1914 109.878 34.0785 106.823 30.2203L106.534 29.8622C104.537 27.3397 102.645 24.9429 99.262 23.8493C99.3595 23.762 99.4991 23.6525 99.6906 23.5299C101.486 22.3556 102.531 20.9298 102.794 19.275C103.177 16.7844 101.58 14.8006 101.508 14.7198L100.421 13.3844L99.7426 14.9683C99.6972 15.0683 98.5544 17.6039 96.1521 17.6039H95.9735C95.808 17.5941 95.6523 17.5876 95.4964 17.5748C95.5807 16.4425 95.3729 14.6908 93.7759 13.0489C91.8573 11.0714 89.5005 10.7747 88.2668 10.7747C87.6079 10.7747 87.1696 10.8553 87.1242 10.8617L85.4815 11.1843L86.4943 12.5102C87.2898 13.5328 88.0104 15.4199 87.1566 16.4071C86.8839 16.7199 86.3224 16.9748 85.7835 17.2296C84.6764 17.7362 83.167 18.4394 83.167 20.2331C83.167 21.3943 84.0727 22.6072 85.7154 23.6395C90.5782 26.6783 93.5779 29.8493 94.8731 33.3496C96.8761 38.7336 94.2627 41.8045 91.7242 43.4208L90.5847 44.1499L91.5814 45.0595C91.7144 45.1756 92.935 46.2435 94.7366 46.3981C95.0775 46.4208 95.4055 46.4402 95.7106 46.4402C96.8664 46.4402 97.8501 46.2595 98.6486 46.0176C98.4279 46.4015 98.1584 46.7918 97.8175 47.1854C96.3664 48.8563 94.5811 49.6176 92.013 49.6564L91.0587 49.6726L90.9841 50.6242C90.9743 50.8144 90.9028 52.5791 92.5844 54.0791C92.8408 54.3114 93.1525 54.5017 93.4772 54.6598C92.3378 55.6791 91.1788 57.4534 90.9549 60.4954C90.7665 63.0341 90.1563 63.9729 90.1497 63.9826L89.0946 65.5826L91.0004 65.6085C94.1491 65.6085 96.5611 64.744 98.233 63.0341C99.2197 62.0213 99.7847 60.8793 100.119 59.8664C100.668 60.3309 101.375 60.7374 102.297 60.9536C102.648 61.0341 103.031 61.0794 103.443 61.0794C104.333 61.0794 105.076 60.8922 105.161 60.8729L106.378 60.5504L105.839 59.4211C105.8 59.3309 104.784 57.0664 105.878 53.8339C106.349 52.4371 106.589 51.1855 106.706 50.2112C107.472 50.608 108.498 50.9371 109.825 50.9403C112.838 50.9403 114.166 48.7047 114.227 48.6112L114.821 47.5854L113.721 47.1338C110.131 45.6531 109.335 41.6755 109.176 39.5207C109.501 39.5819 109.871 39.64 110.29 39.6529H110.471ZM113.318 48.0855C113.318 48.0855 112.267 49.9015 109.855 49.9015H109.825C106.93 49.8855 105.761 48.1306 105.761 48.1306C105.761 48.1306 105.93 50.4146 104.885 53.4951C103.628 57.2084 104.894 59.8632 104.894 59.8632C104.894 59.8632 104.219 60.0438 103.44 60.0438C103.141 60.0438 102.83 60.0148 102.538 59.9373C100.119 59.3664 99.5154 57.1791 99.5154 57.1791C99.5154 57.1791 99.7392 64.5699 91.0684 64.5699H91.0004C91.0004 64.5699 91.7632 63.5376 91.9903 60.5663C92.4026 55.0823 96.1392 54.3307 96.1392 54.3307C96.1392 54.3307 94.1459 54.0823 93.2823 53.3114C91.932 52.0951 92.0261 50.6887 92.0261 50.6887C95.0775 50.6467 97.0742 49.6144 98.5966 47.8628C100.246 45.966 100.518 43.924 100.518 43.924C100.518 43.924 98.879 45.4015 95.7073 45.4015C95.4282 45.4015 95.1295 45.3886 94.8245 45.3595C93.3247 45.2402 92.2858 44.2917 92.2858 44.2917C95.5873 42.1884 97.905 38.5175 95.8502 32.9881C94.2044 28.559 90.2504 25.2491 86.2705 22.7555C84.9459 21.9331 84.209 21.02 84.209 20.2331C84.209 18.3812 86.8579 18.3232 87.9454 17.078C89.1986 15.6329 88.413 13.2875 87.3255 11.8779C87.3255 11.8779 87.6924 11.8036 88.2702 11.8036C89.416 11.8036 91.3996 12.0907 93.0293 13.7683C95.1945 15.9941 94.2953 18.4168 94.2953 18.4168L94.8764 18.5298C95.2237 18.6039 95.5678 18.6168 95.925 18.6328C96.0029 18.6328 96.0806 18.6362 96.1585 18.6362C99.3042 18.6362 100.71 15.3683 100.71 15.3683C100.71 15.3683 104.054 19.4555 99.1322 22.6557C98.2849 23.2041 97.9117 23.7106 98.009 24.2525L98.0868 24.6072L98.4374 24.6686C102.005 25.6299 103.81 28.0751 106.014 30.856C109.361 35.085 114.098 35.2205 114.682 35.2205H114.744C114.744 35.2205 113.663 38.6109 110.478 38.6109C110.426 38.6109 110.381 38.6109 110.325 38.6077C108.861 38.5561 108.111 37.998 108.111 37.998C108.111 37.998 107.537 45.6983 113.318 48.0855Z" fill="black"/>
<path d="M103.613 24.2749C105.07 25.0456 105.917 26.0781 106.661 26.9942C107.391 27.8878 108.086 28.7492 109.17 29.1071C109.556 29.2394 109.966 29.3008 110.381 29.3008C112.011 29.3008 113.647 28.3103 114.267 26.9393L114.89 25.5651L113.381 25.4747C113.309 25.4717 111.368 25.2972 109.206 23.1006C108.316 22.2004 107.242 21.7263 106.083 21.7263C104.668 21.7263 103.619 22.4295 103.502 22.5004L102.113 23.4715L103.613 24.2749ZM106.086 22.765C106.813 22.765 107.661 23.0102 108.462 23.8329C110.978 26.3715 113.319 26.5135 113.319 26.5135C112.894 27.4492 111.66 28.2715 110.384 28.2715C110.089 28.2715 109.793 28.2265 109.498 28.1265C107.768 27.5458 107.148 24.9651 104.106 23.3586C104.106 23.3586 104.956 22.765 106.086 22.765Z" fill="black"/>
<path d="M104.295 37.9818V38.0333C103.418 31.0074 98.2824 25.9331 92.569 22.8457C92.0397 22.5652 91.5528 22.3266 91.079 22.0975C92.819 22.3652 95.6204 22.3975 97.7826 20.533C97.7826 20.533 94.4746 22.9523 87.6963 20.7555C89.5726 21.9652 93.2182 23.6718 96.5457 26.4363C104.866 33.701 98.9121 40.7884 98.9121 40.7884C101.902 37.6882 102.025 34.3655 101.145 31.6526C102.72 34.2558 103.726 37.4173 103.571 41.3141C103.34 46.8981 100.253 51.7274 97.0033 55.6082C95.442 57.4919 95.0913 59.805 95.0913 59.805C95.0913 59.805 95.7211 57.763 97.5292 55.663C101.013 51.6112 103.989 47.4015 104.379 41.3366C104.739 42.4368 106.223 45.4981 108.576 46.6499C108.583 46.6531 105.626 44.882 104.295 37.9818Z" fill="black"/>
<path d="M59.9533 63.979C59.95 63.9694 59.3463 63.0306 59.1516 60.492C58.9241 57.4498 57.7685 55.6757 56.6259 54.6562C56.957 54.5014 57.2621 54.311 57.5185 54.0755C59.1969 52.5755 59.1255 50.811 59.1158 50.6206L59.0509 49.6688L58.0899 49.6528C55.5286 49.6108 53.7399 48.8495 52.2888 47.1817C51.9513 46.7883 51.6784 46.3979 51.4576 46.014C52.2564 46.2559 53.2335 46.4365 54.3923 46.4365C54.704 46.4365 55.0254 46.4172 55.3663 46.3947C57.1679 46.2397 58.3886 45.1754 58.5249 45.0559L59.5215 44.1463L58.3821 43.417C55.8338 41.7977 53.2302 38.7268 55.2299 33.3458C56.5252 29.8458 59.5215 26.6747 64.3909 23.6359C66.0335 22.6036 66.9329 21.3907 66.9329 20.2294C66.9329 18.4359 65.4265 17.7294 64.3196 17.2262C63.7808 16.9712 63.2192 16.7164 62.9463 16.4035C62.0894 15.4196 62.8132 13.5292 63.6054 12.5065L64.6247 11.1806L62.9757 10.8581C62.927 10.8518 62.4952 10.771 61.8329 10.771C60.5993 10.771 58.249 11.0679 56.3271 13.0454C54.7268 14.6905 54.5158 16.4423 54.5969 17.5712C54.441 17.5841 54.2854 17.5907 54.123 17.6003H53.9477C51.539 17.6003 50.3995 15.0647 50.3541 14.9646L49.6755 13.3807L48.5783 14.7164C48.5166 14.797 46.9129 16.7841 47.3025 19.2712C47.5623 20.9262 48.6075 22.352 50.4027 23.5263C50.5976 23.6488 50.7338 23.7584 50.8313 23.8456C47.4517 24.9391 45.5626 27.3393 43.566 29.8619L43.2771 30.2201C40.2257 34.0781 35.9081 34.191 35.392 34.191L33.9214 34.146L34.3693 35.5364C34.4212 35.704 35.723 39.6525 39.6316 39.6525L39.8198 39.6461C40.2321 39.6332 40.6022 39.5784 40.9334 39.5139C40.7709 41.6655 39.9757 45.6431 36.3819 47.127L35.2848 47.5786L35.8789 48.6044C35.9374 48.6979 37.2684 50.9335 40.2874 50.9335C41.6053 50.9301 42.631 50.6012 43.4005 50.2044C43.5174 51.1787 43.7575 52.4303 44.2283 53.8271C45.3222 57.0595 44.303 59.3241 44.264 59.4143L43.7252 60.5436L44.9457 60.8661C45.0268 60.8853 45.7768 61.0726 46.6629 61.0726C47.0784 61.0726 47.4616 61.0273 47.8057 60.9468C48.7308 60.7306 49.445 60.3241 49.9872 59.8595C50.3184 60.8725 50.8866 62.0145 51.8699 63.0273C53.5452 64.7372 55.9538 65.6016 59.1029 65.6016L61.0116 65.5758L59.9533 63.979ZM59.0313 64.5693C50.3605 64.5693 50.5813 57.1787 50.5813 57.1787C50.5813 57.1787 49.9775 59.3659 47.5589 59.937C47.2699 60.0143 46.9616 60.0434 46.6599 60.0434C45.8807 60.0434 45.2086 59.8629 45.2086 59.8629C45.2086 59.8629 46.4684 57.2078 45.212 53.4948C44.1731 50.414 44.3418 48.1301 44.3418 48.1301C44.3418 48.1301 43.1765 49.8851 40.2776 49.9012H40.2484C37.8364 49.9012 36.7845 48.0849 36.7845 48.0849C42.5629 45.7011 41.9949 38.0041 41.9949 38.0041C41.9949 38.0041 41.245 38.5589 39.7776 38.6137C39.7257 38.6169 39.677 38.6169 39.6251 38.6169C36.4372 38.6169 35.3594 35.2265 35.3594 35.2265H35.4243C36.012 35.2265 40.7418 35.0912 44.0888 30.8619C46.293 28.0813 48.1011 25.6393 51.6624 24.6746L52.0195 24.6134L52.0973 24.2586C52.1947 23.7167 51.8246 23.2102 50.9775 22.6616C46.0559 19.4583 49.3997 15.3745 49.3997 15.3745C49.3997 15.3745 50.7987 18.6389 53.9509 18.6389C54.0287 18.6389 54.1003 18.6359 54.1814 18.6359C54.5353 18.6164 54.8859 18.6035 55.2299 18.5293L55.811 18.4164C55.811 18.4164 54.9118 15.9937 57.0803 13.7678C58.71 12.0872 60.6936 11.8033 61.8361 11.8033C62.4172 11.8033 62.7776 11.8776 62.7776 11.8776C61.6933 13.2905 60.9078 15.6325 62.1608 17.0776C63.245 18.3198 65.8907 18.3809 65.8907 20.2325C65.8907 21.0166 65.1538 21.9327 63.8294 22.7552C59.8461 25.2488 55.8922 28.5586 54.2495 32.9878C52.1979 38.517 54.5126 42.1848 57.8206 44.2913C57.8206 44.2913 56.7816 45.2399 55.2787 45.3591C54.9735 45.3881 54.6781 45.4011 54.3923 45.4011C51.2239 45.4011 49.5846 43.9236 49.5846 43.9236C49.5846 43.9236 49.8573 45.9656 51.4966 47.8624C53.0291 49.6142 55.0254 50.6464 58.077 50.6883C58.077 50.6883 58.1744 52.0948 56.8239 53.311C55.9572 54.0787 53.9639 54.3303 53.9639 54.3303C53.9639 54.3303 57.7037 55.0821 58.1126 60.5661C58.3367 63.537 59.093 64.5693 59.093 64.5693H59.0313Z" fill="black"/>
<path d="M39.7189 29.3042C40.1376 29.3042 40.5467 29.2431 40.9331 29.1108C42.0237 28.7526 42.7152 27.8913 43.4455 26.9979C44.1922 26.0817 45.0329 25.0494 46.4906 24.2784L47.9903 23.4784L46.5978 22.5073C46.4808 22.4332 45.4355 21.7332 44.0233 21.7332C42.8612 21.7332 41.7836 22.2042 40.8971 23.1074C38.7353 25.301 36.7973 25.4785 36.7257 25.4817L35.2163 25.5688L35.8363 26.9461C36.4596 28.3108 38.0923 29.3042 39.7189 29.3042ZM41.6407 23.8365C42.4459 23.0138 43.293 22.7688 44.0233 22.7688C45.1465 22.7688 45.9973 23.3622 45.9973 23.3622C42.9586 24.972 42.3353 27.5494 40.5986 28.1301C40.313 28.2301 40.0142 28.2753 39.7189 28.2753C38.443 28.2753 37.2094 27.456 36.7874 26.5172C36.7874 26.514 39.1248 26.372 41.6407 23.8365Z" fill="black"/>
<path d="M46.533 41.3174C46.3706 37.4205 47.377 34.2591 48.9546 31.6559C48.0749 34.3687 48.195 37.6916 51.1881 40.7916C51.1881 40.7916 45.2345 33.7042 53.558 26.4396C56.8886 23.6749 60.531 21.9684 62.404 20.7587C55.6292 22.9556 52.3212 20.5361 52.3212 20.5361C54.483 22.4007 57.2848 22.3686 59.0247 22.0975C58.554 22.3265 58.0607 22.5652 57.5378 22.846C51.818 25.9331 46.6856 31.0074 45.8059 38.0334V37.9786C44.4781 44.8788 41.5239 46.6499 41.5239 46.6499C43.8744 45.4981 45.3546 42.44 45.715 41.3366C46.1078 47.4015 49.0845 51.6112 52.5679 55.663C54.376 57.763 55.0123 59.805 55.0123 59.805C55.0123 59.805 54.6584 57.492 53.0904 55.6082C49.8474 51.7339 46.7602 46.9015 46.533 41.3174Z" fill="black"/>
<path d="M73.0947 27.1008V28.4946C73.5786 27.9106 74.5136 28.0301 74.5136 28.0301V30.0396C74.5136 30.0396 74.481 31.0269 74.1272 31.4559H75.1399H76.1497C75.8022 31.0302 75.7666 30.0396 75.7666 30.0396V28.0301C75.7666 28.0301 76.7014 27.9106 77.1819 28.4946V27.1008H75.1399H73.0947Z" fill="black"/>
<path d="M72.2242 18.8358C72.8702 19.3457 73.2435 19.4295 73.2565 19.4392L73.5097 19.5553V18.2424L71.1333 17.2488C71.1333 17.252 71.156 18.0101 72.2242 18.8358Z" fill="black"/>
<path d="M77.8765 18.8358C78.9511 18.0101 78.9706 17.2488 78.9706 17.2488L76.5942 18.2424V19.5553L76.8442 19.4392C76.8605 19.4295 77.2305 19.3457 77.8765 18.8358Z" fill="black"/>
<path d="M82.1581 13.4906C82.1581 11.5004 78.7851 9.70996 75.0616 9.70996H75.0584H75.0486H75.0389C71.3154 9.70996 67.9426 11.5004 67.9426 13.4906L68.0172 13.9811L69.5039 22.4619L68.0108 23.3232L64.1477 25.5652H64.1606C64.1606 25.5652 63.2906 26.0073 62.8881 26.2814C61.4175 27.2975 61.1058 28.7782 61.9597 29.3911C62.1707 28.1847 63.1314 26.92 64.9299 26.92C66.2253 26.92 67.2121 27.5847 68.0108 28.5815C68.2152 28.8331 68.41 29.1007 68.5918 29.3911C68.8157 29.7557 69.0397 30.075 69.2638 30.3847H59.314C60.0443 31.8459 60.7389 33.3945 60.7389 35.0752V56.9597C60.7389 62.2566 64.839 64.7857 69.2736 64.7857C72.7015 64.7857 73.1625 64.6309 75.055 66.502C76.9379 64.6275 77.399 64.7857 80.8301 64.7857C85.268 64.7857 89.3614 62.2566 89.3614 56.9597V35.0752C89.3614 33.3945 90.0561 31.8459 90.7897 30.3847H80.8368C81.0576 30.0783 81.2814 29.7557 81.5055 29.3911C81.6905 29.1007 81.882 28.8331 82.0833 28.5815C82.8884 27.5814 83.872 26.92 85.1673 26.92C86.9656 26.92 87.9232 28.1814 88.1376 29.3911C88.9914 28.7782 88.6831 27.2975 87.2026 26.2814C86.8066 26.0073 85.9367 25.5652 85.9367 25.5652H85.9496L82.0865 23.3232L80.5997 22.4619L82.0865 13.9811L82.1581 13.4906ZM69.4066 14.4778L74.6331 16.2392V24.3975L70.7863 22.3814L69.4066 14.4778ZM70.4876 31.8074C71.3446 32.6557 72.1854 33.1817 72.9841 33.472C72.8801 33.8815 72.7437 34.7267 73.1299 35.5688C73.445 36.2461 74.0164 36.7688 74.8376 37.1172C74.9285 37.956 75.4609 39.2173 76.9379 39.7753C76.2919 40.4237 75.6621 41.0335 75.4057 41.2819L69.4164 41.1882C69.2799 41.1205 69.0494 40.9689 68.9456 40.7528C68.9325 40.7237 68.9132 40.7076 68.9033 40.6753L69.8806 40.8333C69.9033 40.8367 69.9228 40.8367 69.9422 40.8367C70.1306 40.8367 70.2961 40.7076 70.3285 40.5141C70.3611 40.298 70.2149 40.1012 70.0039 40.0689L68.8028 39.8819L70.137 35.3042L68.8742 32.6622L66.8486 34.7913L66.7251 39.5528L65.3649 39.3398C65.1539 39.2978 64.9526 39.4528 64.917 39.6624C64.8846 39.8721 65.0272 40.0689 65.2416 40.1076L65.813 40.1946C65.6084 40.3108 65.4753 40.4012 65.459 40.4141L65.3422 40.4946L65.3098 40.6367C64.9787 41.9721 65.7285 43.2398 66.537 43.8076L66.5076 43.9755C66.4751 44.182 66.5207 44.382 66.6438 44.5497C66.7608 44.7207 66.9426 44.8239 67.144 44.8593C67.186 44.8657 67.2315 44.8689 67.2705 44.8689C67.6212 44.8689 67.9263 44.6271 68.0138 44.2755C68.3159 44.3111 68.5918 44.3175 68.7799 44.3175H68.9392L76.7983 45.7271L76.9314 45.64C77.5581 45.2045 79.944 43.4755 80.7263 42.9044C80.9406 43.0884 81.1807 43.256 81.4731 43.3948C81.2197 44.24 81.2034 45.54 82.2066 46.5659H62.1771V35.0783C62.1771 33.9654 61.8491 32.8461 61.4628 31.8138H70.4876V31.8074ZM80.2004 42.3173C79.4052 42.898 77.36 44.382 76.6197 44.8982L69.478 43.6239C69.4943 43.5593 69.5103 43.498 69.5266 43.4335C69.6208 43.0657 69.7151 42.5625 69.7215 41.9721L75.7239 42.0689L75.8375 41.9529C75.9283 41.8625 77.8307 40.0367 78.8012 38.9849C79.0319 39.2721 79.3207 39.5464 79.6974 39.7882C79.5675 40.4851 79.6226 41.4785 80.2004 42.3173ZM68.2445 41.0883C68.4132 41.4398 68.7184 41.6755 68.9293 41.8076C68.9229 42.1367 68.8905 42.6496 68.8028 43.1012C68.7833 43.2013 68.7573 43.2948 68.728 43.3884C68.7117 43.4464 68.6958 43.4948 68.6827 43.5335C68.3678 43.5335 67.7477 43.4948 67.2413 43.3109C66.6798 43.1044 65.8421 42.0819 66.0368 40.956C66.2804 40.8076 66.8419 40.4946 67.3678 40.4946C67.7737 40.4916 68.0497 40.6817 68.2445 41.0883ZM67.501 39.6721L67.6212 35.101L68.6534 34.014L69.3028 35.3624L68.0237 39.7494L67.501 39.6721ZM80.1355 63.3696C79.7459 63.3696 79.3857 63.3761 79.0609 63.3889L79.9114 60.7598C80.0446 60.3953 79.3726 59.9275 79.0969 59.5178C79.5154 59.7791 80.5997 60.3501 81.1224 60.5791C81.0672 60.663 80.1355 63.3696 80.1355 63.3696ZM82.8041 60.3823L82.2489 63.2598C81.895 63.3082 81.5184 63.3341 81.1322 63.3502L81.7165 60.5823C81.8918 59.7598 79.668 59.505 78.5708 57.8887C78.0352 58.4889 77.0256 58.6662 76.0127 58.6662C75.0876 58.6662 74.1624 58.5178 73.6007 58.4082C73.4579 58.3855 73.3216 58.3694 73.1886 58.3694C72.8638 58.3694 72.5684 58.4694 72.364 58.8114L72.2015 59.0825L69.1729 58.3727L68.4197 59.6112C68.3125 59.8114 68.3061 59.9823 68.478 60.1694L68.6827 60.3921C68.543 60.8309 67.9133 61.4921 67.9133 61.4921L67.4621 60.9341C67.105 60.5373 67.1633 59.8146 67.5366 59.1437L68.7378 57.1275L71.3025 57.4951L70.9031 56.5919C70.3675 55.3985 71.1823 53.879 71.2699 53.0049C71.2408 53.2694 70.9972 53.3274 70.7116 53.3274C70.452 53.3274 70.163 53.279 69.9715 53.279C69.8969 53.279 69.8319 53.2854 69.7961 53.3111L69.1013 53.7306L68.5528 53.2499C68.4879 53.1565 68.4651 52.9403 68.6275 52.779L69.8969 51.366L68.397 49.6272L70.4974 50.6758L71.137 49.9047C71.312 50.0756 71.2375 50.5239 71.2375 50.5239C71.8932 50.5402 73.7306 51.5499 73.828 53.9047C73.8346 53.9758 73.8346 54.0563 73.8346 54.1338C73.8346 54.1338 73.8509 54.1628 73.8831 54.2113C74.013 54.3887 74.37 54.8435 74.8245 54.8854L77.7269 55.1694H77.7398C78.0579 55.1694 78.691 54.7983 79.5025 54.7983C79.944 54.7983 80.4374 54.9112 80.9633 55.2403C80.9633 55.2403 81.2263 55.0339 81.6549 55.0114C81.6873 55.0081 81.7229 55.0081 81.7555 55.0081C83.0573 55.0081 83.5961 56.1758 84.294 57.1469C84.82 57.8855 85.521 58.9823 85.521 58.9823C85.2614 59.2887 85.0212 59.4566 84.6186 59.4566C84.5084 59.4566 84.3815 59.4469 84.2453 59.4212C82.8494 59.1662 82.6482 56.3144 81.8528 56.0887C81.8108 56.0758 81.7652 56.0726 81.7263 56.0726C81.4697 56.0726 81.3561 56.2983 81.3561 56.2983C81.7197 57.2694 81.5087 57.663 81.8983 58.4114C82.1905 58.9662 82.7098 59.4242 82.924 59.6403C82.924 59.6469 82.8657 60.0662 82.8041 60.3823ZM67.2186 57.6597L67.3517 57.9919C67.264 58.2823 66.2576 58.6953 66.2576 58.6953L66.0402 58.2243C65.8097 57.7211 65.8584 56.8726 66.5597 56.3533L68.1892 55.366L69.9162 55.7306C69.8838 56.2758 70.2116 56.6823 70.2116 56.6823L68.4001 56.3371L67.3159 57.0823C67.1341 57.2081 67.1212 57.4437 67.2186 57.6597ZM83.0766 63.1017L83.5734 60.5275C83.5993 60.3759 83.6319 60.1985 83.6545 60.0502C83.7942 60.1082 83.9434 60.1565 84.1058 60.1857C84.2906 60.221 84.4628 60.2373 84.6186 60.2373C85.3782 60.2373 85.8197 59.8403 86.1151 59.5017L86.4983 59.0597L86.1867 58.5759C86.1574 58.5274 85.4691 57.4435 84.9368 56.7015C84.833 56.5565 84.7322 56.4112 84.6315 56.2533C84.0279 55.3565 83.2713 54.2306 81.7555 54.2306L81.6191 54.2338C81.3692 54.2499 81.1549 54.2983 80.9828 54.3629C80.5055 54.1403 80.0154 54.0274 79.5058 54.0274C78.8791 54.0274 78.3501 54.1983 77.9994 54.3178C77.8988 54.3467 77.8079 54.379 77.7365 54.3919L74.9025 54.1144C74.8668 54.1081 74.7499 54.0403 74.6105 53.8726V53.8596L75.2239 53.6144C75.052 51.5854 73.091 50.3368 71.997 49.9143C71.9485 49.7111 71.851 49.5079 71.679 49.3434L71.0686 48.7692L70.533 49.4079L70.2702 49.7336L66.3031 48.1143L68.8839 51.3336L67.8646 52.866C67.4913 53.2595 67.9036 53.6531 67.9036 53.6531L68.9552 54.3724L70.0461 53.9692C70.0851 53.9692 70.1176 53.979 70.1533 53.9822C70.1013 54.1467 70.0331 54.7919 69.9878 54.9726L68.0951 54.6015L66.105 55.7176C65.0825 56.4628 64.9429 57.6985 65.3228 58.5435L65.5435 59.0242L65.8584 59.7017L66.5529 59.4146C66.5628 59.4114 66.5726 59.4082 66.579 59.4017C66.3291 60.1953 66.4298 60.9501 66.8777 61.447L67.2997 61.9759L67.8613 62.6825L68.478 62.0243C68.6598 61.8437 69.2475 61.1889 69.4293 60.6275L69.5624 60.1985L69.2605 59.8694L69.2119 59.8114L69.5493 59.2566L72.0197 59.8339L72.5748 59.9598L72.8702 59.4759L73.0327 59.2114C73.0619 59.1566 73.0716 59.1469 73.1852 59.1469C73.2729 59.1469 73.3604 59.1566 73.4547 59.1759C74.3863 59.3501 75.2467 59.4371 76.0095 59.4371C76.7496 59.4371 77.1911 59.4082 77.7204 59.2339C77.7204 59.2339 79.048 60.7309 79.0935 60.7889L78.282 63.2791L78.2461 63.4307C76.7074 63.5534 75.9574 63.8889 75.052 64.789C73.737 63.4922 72.8053 63.3566 69.2702 63.3566C65.0402 63.3566 62.1737 60.8921 62.1737 56.9565V47.3336H87.9232L87.9299 56.9565C87.9331 60.1502 86.047 62.3759 83.0766 63.1017ZM88.6442 31.8074C88.2512 32.8397 87.9232 33.959 87.9232 35.0721L87.9266 42.2528C86.4172 42.0012 86.2386 40.3851 86.232 40.3141L86.2029 39.9851L85.8783 39.956C85.2224 39.8946 84.7874 39.6173 84.4205 39.2624C83.6806 38.5269 83.6772 37.3333 83.6806 37.3237C83.6708 37.3849 82.8657 38.5042 83.8005 39.7269C84.1934 40.243 84.7614 40.5592 85.4983 40.6851C85.6705 41.5819 86.3424 42.8464 87.9266 43.0398V46.5561H83.4728C81.4178 45.4205 82.2879 43.4205 82.3299 43.3368L82.5053 42.9561L82.1125 42.8077C79.8887 41.9884 80.4991 39.7819 80.5315 39.6883L80.6224 39.3657L80.3207 39.2237C78.4831 38.3785 78.7331 36.0978 78.7558 36.0044C78.1911 36.4592 77.9865 37.3883 78.3759 38.298C78.1651 38.5367 77.8827 38.8269 77.5742 39.1432C75.672 38.6624 75.6135 36.9237 75.6135 36.843L75.6101 36.5752L75.3603 36.4785C74.6168 36.2044 74.1073 35.7945 73.8573 35.2429C73.5748 34.6331 73.6755 33.9945 73.7533 33.6879C73.9708 33.7365 74.1882 33.772 74.3961 33.7879C74.6105 33.8108 74.8312 33.8236 75.052 33.8236H75.0649H75.0811C75.3018 33.8236 75.5192 33.8108 75.7336 33.7879C76.9184 33.672 78.2461 33.1656 79.629 31.8042H88.6442V31.8074ZM81.7036 24.549L83.463 25.5652H83.489L83.9304 25.8202C82.937 26.0943 82.1774 26.5879 81.5411 27.2362C81.5184 27.2557 81.4958 27.2815 81.4731 27.3041C81.3269 27.4589 81.1807 27.6266 81.0445 27.7977C81.0186 27.8298 80.9926 27.8652 80.9633 27.9009C80.8271 28.075 80.7004 28.2525 80.5771 28.4395C80.5574 28.4718 80.5347 28.5041 80.5121 28.533C80.366 28.7491 80.2264 28.9815 80.0868 29.2202C78.8338 31.3654 76.8341 32.6461 75.055 32.6494C73.2795 32.6461 71.2798 31.3654 70.0267 29.2202C69.8902 28.9879 69.7539 28.7621 69.6079 28.5429C69.5785 28.5009 69.5526 28.4589 69.5266 28.4234C69.4034 28.2459 69.2799 28.0718 69.1533 27.9073C69.121 27.8622 69.0918 27.8266 69.0592 27.7879C68.9229 27.6234 68.7833 27.4589 68.6437 27.3073C68.6144 27.2846 68.595 27.2557 68.5659 27.2298C67.9263 26.5814 67.1699 26.091 66.1732 25.8202L66.6212 25.5652H66.6408L68.4001 24.549L70.2084 23.52L75.0389 26.133L75.0486 26.1234L75.0616 26.133L79.8921 23.52L81.7036 24.549ZM79.3207 22.3844L75.4705 24.4007V16.2392L80.6938 14.4778L79.3207 22.3844ZM75.052 15.3424L69.3255 13.0939C69.8124 11.9487 72.0587 10.9744 75.052 10.9713C78.0482 10.9744 80.2946 11.9487 80.7782 13.0939L75.052 15.3424Z" fill="black"/>
<path d="M10.3008 108.018V97.9202H16.2615V94.2454H0V97.9202H5.96051V108.018H10.3008ZM22.1939 102.26V94.2454H17.9984V108.018H21.7022L28.9358 100.003V108.018H33.1315V94.2454H29.4276L22.1939 102.26ZM47.2463 102.897V108.018H51.4419V94.2454H47.2463V99.2799H40.5043V94.2454H36.3089V108.018H40.5043V102.897H47.2463ZM63.1262 108.018C64.081 108.018 64.949 107.932 65.7593 107.7C67.9294 107.092 69.3473 105.327 69.3473 102.926C69.3473 100.64 68.1318 99.0486 66.1933 98.3251C65.2674 97.978 64.1679 97.9489 63.1262 97.9489H58.8149V94.2454H54.6193V108.018H63.1262ZM62.4029 101.19C62.9815 101.19 63.5312 101.19 64.0232 101.363C64.7176 101.595 65.1227 102.174 65.1227 102.868C65.1227 103.591 64.7176 104.199 64.0521 104.488C63.5891 104.691 63.1262 104.691 62.4029 104.691H58.8149V101.19H62.4029ZM76.8698 102.81L81.8756 108.018H87.4601L80.4867 100.843L87.1995 94.2454H81.9335L76.8698 99.4248H75.7125V94.2454H71.5168V108.018H75.7125V102.81H76.8698ZM96.0931 93.8692C90.4508 93.8692 87.0653 97.052 87.0653 101.161C87.0653 105.27 90.4508 108.452 96.0931 108.452C101.706 108.452 105.092 105.27 105.092 101.161C105.092 97.052 101.706 93.8692 96.0931 93.8692ZM96.0931 105.096C93.2864 105.096 91.4923 103.418 91.4923 101.161C91.4923 98.9039 93.2864 97.2545 96.0931 97.2545C98.8708 97.2545 100.694 98.9039 100.694 101.161C100.694 103.418 98.8708 105.096 96.0931 105.096ZM119.065 93.4641H114.869V94.8529C109.603 94.9687 106.449 97.1967 106.449 101.132C106.449 105.067 109.603 107.121 114.869 107.237V108.626H119.065V107.237C124.36 107.121 127.513 105.067 127.513 101.132C127.513 97.1967 124.36 94.9687 119.065 94.8529V93.4641ZM114.869 104.286C111.976 104.17 110.702 102.984 110.702 101.132C110.702 99.2799 111.976 97.9489 114.869 97.8333V104.286ZM119.065 97.8333C121.987 97.9489 123.231 99.2799 123.231 101.132C123.231 102.984 121.987 104.17 119.065 104.286V97.8333ZM141.472 93.4641H137.277V94.8529C132.011 94.9687 128.857 97.1967 128.857 101.132C128.857 105.067 132.011 107.121 137.277 107.237V108.626H141.472V107.237C146.767 107.121 149.921 105.067 149.921 101.132C149.921 97.1967 146.767 94.9687 141.472 94.8529V93.4641ZM137.277 104.286C134.383 104.17 133.11 102.984 133.11 101.132C133.11 99.2799 134.383 97.9489 137.277 97.8333V104.286ZM141.472 97.8333C144.395 97.9489 145.639 99.2799 145.639 101.132C145.639 102.984 144.395 104.17 141.472 104.286V97.8333Z" fill="black"/>
</g>
<defs>
<clipPath id="clip0_48_39">
<rect width="150" height="108.626" fill="white"/>
</clipPath>
</defs>
</svg>
