<svg width="189" height="50" viewBox="0 0 189 50" fill="none" xmlns="http://www.w3.org/2000/svg">
<g clip-path="url(#clip0_51_102)">
<path d="M55.1924 18.1146C55.0403 17.96 54.9512 17.8183 54.8254 17.6215C54.7597 17.5217 54.689 17.4142 54.6103 17.2987C54.8279 17.047 55.0116 16.7558 55.1505 16.4357L55.7063 15.1686L54.3376 14.9718C54.1069 14.9377 53.7346 14.8407 53.2993 14.7253C52.4602 14.5048 51.3828 14.2215 50.208 14.0982C50.6093 13.9224 50.9501 13.605 51.1886 13.1747L51.4141 12.7681C51.4141 12.7681 51.3538 12.1989 51.1336 12.0206C51.2175 11.8448 51.283 11.6506 51.3276 11.4381L51.5138 10.5304L50.638 10.2314C50.5016 10.1841 50.3654 10.1499 50.2317 10.129C50.1819 9.96374 50.1084 9.78795 50.0088 9.60163L49.4897 8.64936L48.5535 9.19764C48.3203 9.33413 48.1236 9.49157 47.9637 9.66721C47.8247 9.64106 47.6752 9.62792 47.5179 9.62792C47.5179 9.62792 46.9831 9.56754 46.3931 9.78275L45.6379 8.99831L44.7439 8.04343C43.9074 7.1488 42.7747 6.88389 41.6211 7.32457C41.1807 6.88389 40.4937 6.51919 39.4266 6.51919C39.0647 6.51919 38.7474 6.56382 38.5612 6.58737C38.5612 6.58737 37.093 6.855 36.267 7.63944L35.2655 7.16193C34.5942 8.21921 33.4459 8.5549 33.4459 8.5549C33.3671 8.24536 33.2335 7.95677 33.0421 7.69187L33.1075 7.31937C33.1075 7.30883 33.333 6.04702 34.02 4.9766L35.2157 3.11393L33.5218 3.30545C33.5272 3.13762 33.5192 2.93829 33.4957 2.70213L33.3435 1.254L32.0168 1.85472C31.87 1.9203 31.7467 1.98587 31.6315 2.04624L31.3691 1.48742L30.7609 1.80229C30.7005 1.65279 30.622 1.48222 30.5145 1.28549L29.8143 0L28.8207 1.07302C28.7184 1.18323 28.6319 1.28549 28.5585 1.38255L27.9555 0.781837L27.347 1.38516C27.2711 1.28809 27.1872 1.18583 27.0849 1.07563L26.0807 0L25.378 1.2907C25.2705 1.48742 25.1944 1.6554 25.1342 1.80489L24.5285 1.49015L24.2663 2.04885C24.151 1.98861 24.0278 1.9229 23.8808 1.85472L22.549 1.25661L22.4021 2.70994C22.3786 2.94349 22.3706 3.14022 22.3759 3.30819L20.6794 3.11667L21.8777 4.97919C22.5674 6.04702 22.7875 7.30883 22.7875 7.31937L22.8504 7.69187C22.659 7.95938 22.5227 8.24796 22.4467 8.55764C22.4467 8.55764 21.3612 8.09327 20.6348 7.16193L19.6123 7.64985C18.4455 6.86281 17.7219 6.55588 16.4633 6.51919C15.3962 6.4903 14.7092 6.88389 14.2687 7.32457C13.1124 6.88649 11.9823 7.15139 11.1486 8.04603C11.1486 8.04603 10.6006 8.64155 10.2545 9.00091C9.90842 9.36301 9.3971 9.66201 9.3971 9.66201C9.3971 9.66201 8.67085 9.49937 7.92351 9.66995C7.76361 9.49416 7.56442 9.33673 7.3284 9.19764L6.38968 8.64936L5.87315 9.60697C5.77349 9.79056 5.70271 9.96374 5.65562 10.129C5.52187 10.1499 5.38551 10.1841 5.24916 10.2314L4.37862 10.5355L4.5596 11.4381C4.60408 11.6558 4.66707 11.85 4.75359 12.0257C4.70375 12.1228 4.65927 12.2251 4.62257 12.3326L4.47568 12.7708L4.69855 13.1773C4.93457 13.605 5.2727 13.925 5.67657 14.1009C4.49922 14.2242 3.42429 14.5074 2.58262 14.7278C2.15002 14.8407 1.77765 14.9403 1.54697 14.9744L0.173043 15.1738L0.485037 15.8821L0.734197 16.4462C0.875751 16.761 1.06193 17.0522 1.27687 17.3041C1.19555 17.4194 0.849465 17.9625 0.694768 18.1172L0 18.8229L0.666021 19.5575C0.749803 19.6467 1.49714 20.4311 2.70583 20.4337C3.03617 20.4337 3.36391 20.3761 3.68905 20.2605C4.01158 20.7644 4.39436 21.2758 4.74318 21.5277C4.10071 22.2833 3.36925 22.9392 2.32826 23.435L1.45785 23.8493L1.83268 24.8437C2.07664 25.4444 2.55114 26.1029 3.46877 26.3548C3.27219 26.9424 3.17786 27.4986 3.09395 27.9944C2.89722 29.1723 2.8133 29.6603 1.77765 30.0249L0.846865 30.3502L1.11437 31.2999C1.3293 32.0738 1.65184 32.5854 2.00053 32.9238L1.38173 33.6058C1.38173 33.6058 2.85013 34.7078 4.28949 34.8415C4.31044 34.8441 5.53761 34.9228 6.08822 34.2197C6.30849 35.0173 6.65718 35.7519 6.97437 36.4182C7.62465 37.7876 7.97074 38.5981 7.53554 39.338L6.55231 41.0066L8.48466 40.9253C9.32893 40.8912 10.113 40.8387 10.792 40.6707C10.792 40.7074 10.7894 40.7416 10.7867 40.7757L10.6295 42.2081L12.3232 41.8512C12.5016 41.7987 12.6693 41.728 12.8214 41.6466C13.8702 42.8744 15.6532 43.8319 18.0548 43.8319H18.1938L15.4329 44.9652L17.444 46.012C18.768 46.702 20.2389 47.2791 21.9171 47.7697L21.6836 48.5751L22.6931 48.8714C23.2752 49.042 25.3806 49.6009 27.9449 49.6009C30.5092 49.6009 32.612 49.042 33.1968 48.8714L34.2035 48.5751L33.9702 47.7722C35.6508 47.2818 37.1219 46.7046 38.4459 46.0146L40.457 44.9678L37.6934 43.8347H37.8323C40.2341 43.8347 42.0144 42.877 43.0631 41.6493C43.2153 41.7306 43.3831 41.8013 43.5613 41.8539L45.2551 42.2107L45.1004 40.7809C45.0978 40.7468 45.0952 40.7101 45.0952 40.6733C45.7718 40.8413 46.5582 40.8912 47.3999 40.9278L49.3323 41.0092L48.3544 39.3433C47.9164 38.6035 48.2651 37.7928 48.9127 36.4234C49.2301 35.757 49.5788 35.0224 49.799 34.225C50.1713 34.5082 50.5726 34.6789 50.9711 34.7681C50.9711 34.7681 51.2805 34.8599 51.5767 34.8678C52.4315 34.8939 52.8588 34.65 53.4463 34.2801L54.5134 33.6084L53.8892 32.9264C54.2381 32.5906 54.5604 32.0791 54.7756 31.3079L55.0457 30.3554L54.1121 30.0301C53.0738 29.6656 52.9925 29.1775 52.796 27.9997C52.7121 27.5038 52.6203 26.9451 52.421 26.36C53.3387 26.1054 53.8106 25.4471 54.0545 24.8489L54.4268 23.8521L53.5563 23.4375C52.5153 22.9417 51.7839 22.2859 51.1388 21.5303C51.4902 21.2786 51.873 20.7669 52.1981 20.2633C52.5207 20.3787 52.8484 20.4337 53.1813 20.4363C54.39 20.4363 55.1399 19.6521 55.2212 19.5628L55.8873 18.8282L55.1924 18.1146Z" fill="white"/>
<path fill-rule="evenodd" clip-rule="evenodd" d="M19.4231 31.0426V23.0412C19.4231 22.2962 19.2081 21.5511 18.9512 20.8665H25.1574C25.7263 21.6481 26.7594 22.1728 27.9445 22.1728C29.1244 22.1728 30.1575 21.6481 30.7291 20.8665H36.9353C36.6732 21.5538 36.4607 22.2962 36.4607 23.0412V31.0426H19.4231ZM27.942 41.977C27.0741 41.1139 26.4553 41.0195 24.1165 41.0195C21.3214 41.0195 19.4231 39.3799 19.4231 36.759V31.5121H36.4581V36.759C36.4581 39.3799 34.5624 41.0195 31.7621 41.0195C29.4259 41.0169 28.8071 41.1139 27.942 41.977Z" fill="#FFDD2D"/>
<path d="M20.4114 42.9661V44.5637L19.0244 45.1226C20.1964 45.6552 21.6516 46.1851 23.3612 46.5759L24.1477 44.0128C22.4697 43.6691 21.3003 43.3098 20.4114 42.9661Z" fill="white"/>
<path d="M27.9427 45.1307C26.304 45.1307 24.9249 44.9601 24.3742 44.8342L23.543 47.5232C24.8487 47.8432 26.3774 48.0794 27.9427 48.0794C29.5028 48.0794 31.0315 47.8458 32.3424 47.5232L31.5087 44.8342C30.958 44.9628 29.5842 45.1307 27.9427 45.1307Z" fill="white"/>
<path d="M35.4726 42.9661C34.5812 43.3098 33.4145 43.6665 31.7363 44.0154L32.5256 46.5785C34.2378 46.1876 35.6877 45.6577 36.8597 45.1251L35.4752 44.5663V42.9661H35.4726Z" fill="white"/>
<path d="M17.5072 17.1912C19.6782 16.0185 24.985 13.437 21.3877 10.6536C20.8974 10.2759 20.3572 9.93491 19.9037 9.51244C19.3425 9.94531 20.1133 11.021 20.3074 11.4144C20.3074 11.4144 19.1092 11.5352 18.8234 11.5352C16.9724 11.5272 15.032 10.4306 16.0153 8.32935C15.2785 8.48144 15.1893 9.18977 14.9638 9.79582C14.4918 9.47575 13.6713 8.78837 13.0393 8.88543C13.5533 10.5304 15.7164 12.0127 17.3944 12.3483C15.698 13.2718 12.5517 13.9591 10.8971 11.9706C9.73567 14.2189 11.3534 15.1581 12.9397 16.3359C6.90128 19.0931 7.79277 22.1862 3.83101 24.6207C4.34494 24.8621 6.63651 24.3768 6.84104 24.3479C5.98103 25.4628 5.57978 25.935 5.32816 26.478C5.08694 26.9871 4.97933 27.5615 4.74086 28.7998C4.55467 29.7784 4.21379 30.7543 3.02344 31.4023C3.49013 32.2469 4.52579 31.5858 4.95839 31.4731C4.90076 31.5622 4.75386 32.5801 4.36589 33.0708C6.40049 32.9395 5.45917 28.6477 7.49392 29.6812C8.06807 29.9698 8.24112 30.6467 7.97635 31.2001C6.63911 33.9601 9.67803 36.392 9.51279 38.8107C10.26 38.8055 11.0335 38.7844 11.5212 37.7745C11.7756 38.2782 12.1688 38.9865 12.389 39.6686L12.9975 38.6323C13.3723 40.3481 14.9717 41.9326 17.1322 42.0743C16.1018 40.4424 17.3368 38.2153 14.8327 35.8463C15.1448 35.5944 15.8657 35.1091 16.1227 34.7786C13.0499 35.1405 9.84312 32.7086 11.2983 31.5544C12.2502 30.8015 12.667 32.365 14.1354 32.1026L13.5611 31.6069C13.763 31.4074 13.9936 31.1478 14.2323 30.951C13.6083 30.8748 12.9266 30.4761 12.9266 30.4761L13.2989 29.8597C9.69897 29.8544 9.60712 27.0999 11.0703 26.9897C11.7571 26.9398 12.646 28.2068 14.8616 27.942C14.5784 27.6009 14.4657 27.0841 14.3319 26.7037C14.8668 26.6538 15.4961 26.6591 16.0021 26.4125C14.9193 26.2734 14.6466 25.9089 13.7447 25.2267L14.7909 24.8438C13.2728 24.0854 13.3645 22.766 13.3173 21.3913C14.1116 21.8477 15.0452 22.5561 16.0415 22.2282C16.2774 22.1494 16.4295 22.0392 16.4347 21.7926C15.0137 21.2234 14.1013 19.0328 17.5072 17.1912ZM14.914 17.4064C13.0131 19.4395 13.8363 20.6568 14.2193 21.0319C13.5113 20.8797 12.4547 19.9772 12.6958 19.1036C12.4704 19.374 12.2397 19.6677 12.0037 19.9694C11.5317 20.599 11.1096 21.2155 10.7346 21.8136C10.1577 23.5294 11.2144 25.3002 13.0131 26.0846C11.0151 25.7907 10.1184 24.012 10.1238 22.8788C9.16931 24.6837 8.71315 26.3312 8.75505 27.7137C8.77339 28.2279 8.81802 28.708 8.8862 29.1619C9.34495 30.0328 10.0817 30.3529 11.3953 30.513C10.2023 30.5889 9.57042 30.5338 9.0513 29.9882C9.86407 33.4852 13.6659 36.5126 15.2129 39.1046C13.6634 37.0897 10.4567 34.0887 9.33454 31.919C9.24803 32.7035 9.45776 34.713 10.433 35.9486C8.99626 34.5347 8.88346 32.394 8.97792 31.1399C8.61349 30.2375 8.38268 29.2301 8.35119 28.0837C8.32244 27.0289 8.39582 26.1134 8.55572 25.2923C7.64862 26.583 6.33752 27.0815 5.69258 29.0464C5.8184 26.5121 7.70885 26.4729 9.12468 23.3957C9.67268 22.0497 10.4699 20.8876 11.3508 19.5706C10.2312 19.938 9.39218 20.2002 8.09697 21.6194C9.01721 19.4421 14.3345 16.9945 16.7704 14.6255C16.0388 14.7804 13.0524 14.8564 11.8123 14.0274C14.0592 14.636 19.0594 13.9407 20.9473 12.65C19.6441 14.5259 16.8071 14.6334 13.354 18.3639C13.7945 18.0123 14.3817 17.6582 14.914 17.4064Z" fill="white"/>
<path d="M51.142 28.7996C50.9034 27.5614 50.7985 26.987 50.5574 26.478C50.3083 25.9348 49.9045 25.4627 49.0418 24.3478C49.2464 24.3765 51.5432 24.862 52.0545 24.6206C48.0927 22.186 48.9843 19.093 42.9431 16.3358C44.5295 15.1579 46.1472 14.2188 44.9856 11.9679C43.3312 13.959 40.1849 13.2717 38.4884 12.3456C40.1691 12.0098 42.3297 10.5301 42.8436 8.88272C42.209 8.78566 41.3883 9.47303 40.9165 9.79036C40.6908 9.18445 40.6043 8.47613 39.8676 8.32129C40.8509 10.4253 38.908 11.5219 37.0542 11.5297C36.7711 11.5297 35.5754 11.4091 35.5754 11.4091C35.7668 11.0156 36.5377 9.94 35.974 9.50712C35.5203 9.93206 34.9855 10.2705 34.4926 10.6484C30.8926 13.4318 36.2047 16.0158 38.3757 17.1859C41.7764 19.0274 40.8719 21.218 39.448 21.7794C39.4534 22.026 39.6054 22.1361 39.844 22.2149C40.8352 22.5455 41.7738 21.8372 42.5629 21.378C42.5185 22.7527 42.6127 24.0749 41.0946 24.8305L42.1382 25.2134C41.2362 25.8956 40.9661 26.2601 39.8833 26.3992C40.3868 26.6458 41.0213 26.6406 41.5536 26.6904C41.4173 27.0709 41.2992 27.5877 41.0213 27.9287C43.2395 28.1909 44.1308 26.9265 44.8126 26.9764C46.2705 27.0866 46.184 29.8412 42.5813 29.8464L42.9536 30.4629C42.9536 30.4629 42.2719 30.8616 41.6453 30.9378C41.8839 31.1319 42.1171 31.3941 42.3192 31.5937L41.7449 32.0894C43.2106 32.3518 43.6301 30.7883 44.5819 31.5411C46.0371 32.6954 42.833 35.1273 39.7575 34.7653C40.017 35.0958 40.738 35.5838 41.0501 35.8356C38.5435 38.2019 39.7758 40.4319 38.7507 42.0663C40.9058 41.9219 42.5053 40.3375 42.8854 38.6217L43.4938 39.658C43.7114 38.9758 44.11 38.2676 44.3591 37.7639C44.8442 38.7739 45.6228 38.7949 46.3727 38.8C46.2023 36.3813 49.2385 33.9494 47.9066 31.1896C47.6391 30.6386 47.8122 29.9618 48.3864 29.6706C50.4262 28.637 49.4797 32.929 51.517 33.0601C51.1263 32.5695 50.9822 31.5516 50.9271 31.4625C51.3572 31.5753 52.3902 32.2364 52.8569 31.389C51.6743 30.7542 51.3335 29.7782 51.142 28.7996ZM47.3324 25.2895C47.4923 26.1133 47.5737 27.0263 47.5368 28.0809C47.5028 29.2273 47.2746 30.2346 46.9102 31.137C47.0019 32.3911 46.8918 34.5318 45.455 35.9458C46.4278 34.7076 46.6401 32.7006 46.5536 31.9163C45.4262 34.0858 42.2222 37.0871 40.6699 39.1018C42.2194 36.5098 46.0214 33.4798 46.8369 29.9855C46.3123 30.5286 45.6858 30.5861 44.4901 30.5101C45.8011 30.35 46.5378 30.0301 46.9967 29.159C47.0649 28.7078 47.1096 28.225 47.1279 27.7111C47.1724 26.3284 46.7136 24.6809 45.7592 22.876C45.767 24.0094 44.8703 25.788 42.8697 26.0818C44.6631 25.2948 45.7225 23.5239 45.1483 21.8109C44.776 21.2127 44.3565 20.5935 43.8792 19.9667C43.6432 19.665 43.4126 19.3712 43.1843 19.101C43.4256 19.9745 42.369 20.877 41.661 21.0292C42.0465 20.654 42.8671 19.4368 40.9689 17.4035C41.5012 17.6554 42.0884 18.0095 42.5314 18.3558C39.0785 14.6254 36.244 14.5204 34.9357 12.6421C36.8262 13.9329 41.8263 14.6306 44.0706 14.0194C42.8331 14.8484 39.844 14.7723 39.1125 14.6175C41.5483 16.9864 46.8709 19.434 47.7886 21.6116C46.4934 20.1923 45.6517 19.9299 44.5374 19.5626C45.4209 20.8822 46.2127 22.0417 46.7607 23.3876C48.1793 26.4648 50.0723 26.5015 50.1956 29.0384C49.5506 27.0786 48.2421 26.5803 47.3324 25.2895Z" fill="white"/>
<path d="M30.7272 20.8638C30.1582 21.6456 29.1226 22.1703 27.9452 22.1703C27.6699 22.1703 27.4052 22.1388 27.1534 22.0916C27.2241 22.4143 27.3894 22.7474 27.7328 23.0334C27.594 23.9699 27.9977 24.8462 29.002 25.0744C29.1095 25.5519 29.4031 25.9113 29.9012 26.0819L29.2011 26.8899C28.9312 27.1994 28.5798 27.2991 28.2966 27.2623L25.1713 26.9082C25.3076 26.5618 24.9458 26.1604 23.9546 26.331L25.1818 22.8944L24.4344 21.302L23.016 22.5139L22.9111 26.1186L22.3001 25.822C21.5135 25.481 21.2803 26.916 22.0301 26.9213L22.3316 26.924C22.3106 27.0708 22.358 27.2335 22.4758 27.2858C22.3342 27.3436 22.2924 27.6086 22.468 27.703C22.2898 27.7897 22.2634 28.0625 22.4076 28.1805C22.2529 28.4455 22.2242 29.02 22.7721 29.1643C23.2231 29.2823 23.5062 28.7996 23.5981 28.5189L28.4618 30.0247C29.1462 30.2216 29.6391 30.1113 30.2106 29.6103L31.4797 28.5005C31.3197 29.2273 31.5794 29.8804 32.1325 30.0982C32.1325 30.0982 32.0461 30.7645 32.0802 31.0399L33.7819 31.0427H36.4614V23.0412C36.4614 22.2961 36.6738 21.5512 36.936 20.8638H33.7819H30.7272Z" fill="white"/>
<path d="M23.4437 34.3274L23.5382 34.4454C23.6692 34.6081 23.7478 34.5688 23.8974 34.4821L24.1175 34.3641C24.2566 34.2591 25.1612 34.6055 25.211 33.8525C25.3106 34.4139 24.642 35.5971 25.0457 36.2581L25.5886 37.1475L23.816 37.1737C23.6221 37.1737 23.5198 37.2919 23.4674 37.3968L23.0033 38.3595C22.8827 38.6141 22.8905 38.8763 23.0426 39.0521L23.3571 39.4063C23.3571 39.4063 23.6141 39.1886 23.698 38.9027L23.559 38.7583C23.4437 38.6482 23.4437 38.5432 23.5067 38.4068L23.7925 37.8138C23.9025 37.5804 24.0154 37.5306 24.267 37.5908L25.7013 37.9004C25.8062 37.9267 25.9766 37.9765 26.0788 37.8007C26.2545 37.4885 26.5639 37.4677 26.8785 37.5175C27.6652 37.6355 29.4821 37.8244 30.1297 37.0662C30.8901 38.0762 32.3768 38.0762 32.2798 38.6061L31.9652 40.3429H32.4371L32.7255 38.5668C32.757 38.3595 32.8855 38.0762 32.6626 37.9161C32.5708 37.8453 32.5288 37.8087 32.3217 37.4518C32.0517 36.9796 32.0647 36.2712 31.8052 35.66C32.0518 35.3688 32.3191 35.2692 32.5525 35.3242C33.0768 35.4527 33.2185 36.3579 33.9631 37.095C33.8792 36.7671 33.8425 36.4077 33.6669 36.0955C33.6669 36.0955 34.1833 36.4969 34.317 36.9665C34.4009 37.2604 34.4875 37.4754 34.7523 37.6119C34.928 37.6747 35.1377 37.5908 35.3474 37.3391C35.3474 37.3391 34.8572 36.6412 34.498 36.1848C34.005 35.5577 33.347 34.9281 32.4502 35.0016C32.167 35.0252 31.8944 35.1538 31.6347 35.3086C30.6148 34.7366 29.823 35.3427 29.5084 35.3427L27.5996 35.2298C27.2246 35.2062 26.9284 34.7707 26.9284 34.7707C26.8812 33.1548 25.5833 32.512 25.1349 32.512C25.1349 32.512 25.1769 32.2208 25.0589 32.1184L24.6603 32.6195L23.5539 32.2154L24.4217 32.9265L23.4804 34.0205C23.3835 34.128 23.3966 34.2696 23.4437 34.3274Z" fill="white"/>
<path d="M22.1933 36.5967C21.9258 36.804 21.939 37.0925 22.099 37.4152L22.2589 37.7144L22.6758 37.3968L22.5814 37.1922C22.5132 37.0479 22.5158 36.901 22.6338 36.8093L23.2316 36.3581C23.3994 36.2347 23.4518 36.2216 23.6302 36.2478L24.8914 36.5128C24.8914 36.5128 24.7 36.2347 24.637 35.9514L23.4493 35.794C23.2814 35.7729 23.1791 35.8439 23.0324 35.9566L22.1933 36.5967Z" fill="white"/>
<path d="M30.2573 40.3428H30.7345L31.5002 38.4566C31.5264 38.391 31.5631 38.3622 31.5919 38.307C31.2484 38.1706 31.0465 38.0761 30.7608 37.9109C30.9522 38.168 31.1016 38.2782 31.0229 38.517L30.2573 40.3428Z" fill="white"/>
<path d="M30.6642 14.8302L31.548 9.74854L28.1997 10.8871V16.1261L30.6642 14.8302ZM28.766 11.4013L30.9869 10.5828C30.9869 10.5828 30.5542 10.9343 30.0377 11.2885C29.5788 11.6059 28.766 11.9443 28.766 11.9443V11.4013ZM28.766 12.6317L30.7981 11.9049C30.7981 11.9049 30.5542 12.162 30.0403 12.5163C29.5815 12.8309 28.7687 13.1696 28.7687 13.1696V12.6317H28.766ZM28.766 13.9381L30.5542 13.2509C30.5542 13.2509 30.5542 13.4685 30.0377 13.8201C29.5788 14.1376 28.766 14.4759 28.766 14.4759V13.9381Z" fill="white"/>
<path d="M24.7067 19.324L24.7801 19.442H25.4697L25.4776 19.5627C25.4855 19.6781 25.5117 19.7961 25.551 19.9169C25.6584 20.2448 25.8708 20.5885 26.2117 20.8666C26.6076 21.1866 27.1793 21.4174 27.9397 21.4174C29.5889 21.4174 30.3335 20.3498 30.4042 19.5627L30.4095 19.442H31.1017L31.1751 19.324C31.8254 18.3061 32.6198 17.1754 33.5427 17.0127L31.0257 15.5515L27.9397 17.2305L24.8509 15.5515L22.3364 17.0127C23.2594 17.1727 24.0539 18.3061 24.7067 19.324Z" fill="white"/>
<path d="M27.68 16.1261V10.8871L24.3369 9.74854L25.2153 14.8302L27.68 16.1261ZM27.1162 14.4812C27.1162 14.4812 26.3035 14.1402 25.8446 13.8253C25.328 13.4737 25.328 13.2535 25.328 13.2535L27.1188 13.9406V14.4812H27.1162ZM27.1162 11.4013V11.9443C27.1162 11.9443 26.3035 11.6059 25.8446 11.2885C25.3254 10.9343 24.8901 10.5828 24.8901 10.5828L27.1162 11.4013ZM27.1162 12.6317V13.1721C27.1162 13.1721 26.3035 12.8337 25.8446 12.5189C25.3254 12.1647 25.0842 11.9076 25.0842 11.9076L27.1162 12.6317Z" fill="white"/>
<path d="M27.9423 7.5083C26.0309 7.5083 24.5967 8.1353 24.2847 8.86977L27.9423 10.3153L31.5947 8.86977C31.2853 8.1353 29.8537 7.5083 27.9423 7.5083Z" fill="white"/>
<path d="M27.9424 5.4096C29.3504 5.4096 30.7611 5.83727 31.7102 6.39076C31.8649 5.87916 32.0301 5.51461 32.2556 5.09746L31.3904 5.23122L30.6903 3.73586L29.382 4.43104L27.9424 3.00659L26.5005 4.43104L25.1947 3.73586L24.4894 5.23122L23.624 5.09746C23.8495 5.51461 24.0122 5.87916 24.172 6.39076C25.1239 5.83727 26.5292 5.4096 27.9424 5.4096Z" fill="white"/>
<path d="M51.8025 16.9264C52.2744 16.8661 52.6546 16.7087 53.1186 16.3624C52.1197 16.0975 50.0274 15.3393 48.2418 15.6803C47.6518 15.7591 47.3241 15.9978 47.5338 16.1342C48.4935 16.7717 49.6786 18.2487 50.5412 19.9723C51.299 19.0305 50.9818 17.7948 50.8219 17.4406C52.332 18.3509 52.7279 18.7942 53.428 18.6213C53.0531 18.0466 52.5261 17.5298 51.8025 16.9264Z" fill="white"/>
<path d="M5.34335 19.9697C6.20596 18.2461 7.3911 16.7691 8.35337 16.1317C8.56831 15.9952 8.23537 15.7564 7.65067 15.6777C5.86248 15.3393 3.76489 16.0949 2.76593 16.3599C3.23522 16.7061 3.60759 16.8636 4.08483 16.9239C3.35858 17.5299 2.8315 18.0441 2.45654 18.6186C3.16185 18.7918 3.55516 18.3484 5.06284 17.4381C4.90815 17.7949 4.58821 19.0279 5.34335 19.9697Z" fill="white"/>
<path fill-rule="evenodd" clip-rule="evenodd" d="M15.8137 35.9671C16.5084 35.4162 17.0853 35.1407 17.0565 33.8054C16.0129 34.3405 13.0527 34.3117 11.8151 32.6065C11.4664 32.1212 11.8388 31.8772 12.1769 32.2602C13.0238 33.2204 14.5919 32.785 15.1634 32.5095C15.0715 32.1789 14.8173 31.7486 14.6049 31.565C14.8199 31.3551 15.4256 31.0403 15.5487 30.4999C15.2262 30.3241 13.9703 30.1982 13.9703 30.1982C14.1722 30.0041 14.424 29.7338 14.2719 29.0124C12.9898 29.4059 11.4035 28.8708 11.0443 28.3959C10.6903 27.9289 11.0521 27.4909 11.3511 27.8004C11.9907 28.4721 15.1424 29.2407 16.3145 28.0732C15.8791 27.9526 15.3994 27.5644 15.3129 27.323C16.3984 27.2128 17.2636 26.5727 17.3344 25.7751C16.7339 25.7751 15.6012 25.7306 15.2132 25.442C15.7324 25.2505 16.0627 25.0616 16.228 24.4792C14.243 24.3584 14.0857 22.8841 14.0753 22.6402C15.3679 23.3852 17.6438 23.0546 17.0538 21.2182C15.9788 21.1606 14.8959 19.4212 17.8509 17.8237C20.5384 16.3676 23.5931 14.7989 23.323 12.2147C23.1473 10.5619 20.4283 9.43384 20.0823 8.59697C18.9469 9.13746 18.7188 9.76447 19.2301 10.8164C19.2301 10.8164 16.6998 11.0683 16.5007 9.50996C16.4142 8.81218 16.8808 8.1589 17.3816 7.65784C17.0984 7.65784 15.1921 7.14624 14.618 8.69938C13.5509 7.97011 12.6358 7.99626 11.9173 8.76756C13.0658 9.44959 13.7763 11.7897 15.6747 12.4797C14.3243 13.2116 12.1402 12.9047 10.866 10.6538C9.65989 12.4718 8.96512 14.2715 11.553 16.1944C6.84645 18.3377 6.88054 22.4355 2.78503 24.3873C3.19929 25.5022 4.07504 25.5022 5.19201 25.3292C3.42217 27.63 4.92985 30.0381 2.12695 31.022C2.38911 31.9612 2.91618 32.7114 3.94923 32.436C3.65558 32.8951 3.46159 32.8846 3.0053 33.3882C4.53653 34.3537 6.35361 33.6559 6.76527 30.5576C6.83864 30.0041 7.59899 30.3504 7.33682 30.8934C5.59053 34.5059 10.006 37.2237 8.44325 39.8733C9.81978 39.8156 10.8712 39.7081 11.4428 39.2437C11.7234 39.8 11.8938 40.3509 11.8308 40.8938C12.5912 40.7391 12.8691 40.2905 12.9216 39.771C13.4197 41.227 15.2027 42.7827 18.0555 42.7827C16.5425 40.6211 17.9506 38.4304 15.8137 35.9671ZM12.9976 38.6299L12.3894 39.6661C12.1718 38.984 11.7758 38.2757 11.5215 37.772C11.0312 38.782 10.2577 38.8031 9.51299 38.8083C9.67823 36.3895 6.63932 33.9576 7.97656 31.1977C8.24406 30.6469 8.06828 29.97 7.49412 29.6788C5.45691 28.6452 6.4007 32.937 4.36609 33.0682C4.7542 32.5777 4.90095 31.5598 4.95873 31.4705C4.52599 31.5834 3.49034 32.2444 3.02364 31.3998C4.21399 30.7518 4.55487 29.7758 4.74106 28.7973C4.97707 27.559 5.08714 26.9846 5.32576 26.4756C5.57752 25.9325 5.97864 25.4604 6.83864 24.3455C6.63411 24.3742 4.34515 24.8597 3.82861 24.6183C7.79037 22.1836 6.89888 19.0907 12.9373 16.3335C11.3536 15.1556 9.73586 14.2164 10.8948 11.9681C12.5493 13.9566 15.6931 13.2694 17.392 12.3459C15.714 12.0101 13.5509 10.5306 13.0396 8.88297C13.6715 8.7859 14.4921 9.47328 14.9615 9.79335C15.1896 9.18469 15.2788 8.47897 16.0155 8.32688C15.0323 10.4282 16.9726 11.5247 18.8237 11.5326C19.1121 11.5326 20.3077 11.4119 20.3077 11.4119C20.1164 11.0184 19.3428 9.94284 19.9039 9.50996C20.3576 9.93504 20.8976 10.2735 21.388 10.6512C24.9879 13.4372 19.6784 16.0186 17.5075 17.1913C14.1014 19.033 15.0139 21.2262 16.4351 21.785C16.4298 22.0316 16.2778 22.1418 16.0418 22.2205C15.0454 22.551 14.112 21.84 13.3176 21.3836C13.3647 22.7583 13.2703 24.0804 14.7911 24.8359L13.7448 25.2164C14.6443 25.901 14.9196 26.2632 16.0025 26.4048C15.4964 26.6514 14.8697 26.6461 14.3322 26.696C14.4685 27.0763 14.5787 27.5931 14.8618 27.9343C12.6463 28.1966 11.7575 26.9321 11.0705 26.9819C9.60745 27.092 9.69918 29.8466 13.2991 29.852L12.9269 30.4684C12.9269 30.4684 13.6085 30.8673 14.2353 30.9432C13.9966 31.1373 13.7659 31.3998 13.564 31.5991L14.1381 32.095C12.6673 32.3573 12.2531 30.7937 11.2986 31.5467C9.84347 32.701 13.0501 35.1329 16.1231 34.7708C15.8661 35.1014 15.1424 35.5893 14.833 35.8412C17.337 38.2076 16.102 40.4373 17.1325 42.0718C14.972 41.9301 13.3726 40.3429 12.9976 38.6299Z" fill="black"/>
<path fill-rule="evenodd" clip-rule="evenodd" d="M9.04605 29.9885C9.56791 30.5315 10.1971 30.5892 11.3902 30.513C10.0765 30.3531 9.3397 30.0331 8.88094 29.1621C8.81536 28.7109 8.77074 28.2282 8.75239 27.714C8.7105 26.3314 9.16665 24.6839 10.1211 22.8789C10.1159 24.0097 11.01 25.7883 13.0106 26.0848C11.2118 25.2978 10.1552 23.527 10.7319 21.8138C11.1069 21.2157 11.5292 20.5967 12.0011 19.9697C12.2371 19.668 12.4677 19.3742 12.6932 19.1039C12.452 19.9775 13.5087 20.8799 14.2166 21.0322C13.8338 20.6569 13.0106 19.4423 14.9114 17.4093C14.3818 17.661 13.7945 18.0151 13.3488 18.3615C16.7992 14.631 19.6388 14.526 20.9419 12.6477C19.0541 13.9384 14.0541 14.6362 11.807 14.025C13.0472 14.854 16.0337 14.7779 16.7651 14.6232C14.332 16.9921 9.0147 19.4397 8.09172 21.6171C9.38693 20.1953 10.226 19.9354 11.3482 19.5708C10.4646 20.8904 9.67017 22.0501 9.12217 23.3957C7.70634 26.4704 5.81328 26.5098 5.68994 29.044C6.33501 27.0791 7.64597 26.5806 8.5532 25.2899C8.39317 26.1136 8.31719 27.0266 8.34608 28.0811C8.37756 29.2277 8.60824 30.235 8.97267 31.1375C8.88094 32.3914 8.99101 34.5321 10.4279 35.9462C9.45251 34.7106 9.24277 32.701 9.32929 31.9167C10.4541 34.0861 13.6609 37.0874 15.2104 39.1022C13.6609 36.5128 9.86156 33.4854 9.04605 29.9885Z" fill="black"/>
<path fill-rule="evenodd" clip-rule="evenodd" d="M44.5396 19.5706C45.6539 19.9378 46.4956 20.1975 47.7908 21.6194C46.8732 19.442 41.5479 16.9943 39.1148 14.6255C39.8462 14.7777 42.8353 14.8562 44.0729 14.0273C41.8284 14.6386 36.8284 13.9408 34.938 12.6499C36.2437 14.5283 39.0807 14.6333 42.5337 18.3637C42.0907 18.0175 41.5034 17.6634 40.9711 17.4115C42.8694 19.4446 42.0487 20.6619 41.6633 21.037C42.3712 20.8849 43.4278 19.9825 43.1866 19.1089C43.4148 19.379 43.6455 19.673 43.8815 19.9745C44.356 20.6041 44.7756 21.2207 45.1506 21.8188C45.7273 23.5345 44.668 25.3053 42.8745 26.0897C44.8752 25.7959 45.772 24.0146 45.7614 22.8839C46.7185 24.6889 47.1746 26.3362 47.1328 27.7189C47.1144 28.233 47.0697 28.7131 47.0015 29.167C46.54 30.0379 45.8033 30.358 44.4924 30.518C45.688 30.5916 46.3147 30.5364 46.8391 29.9935C46.0236 33.4904 42.2244 36.5178 40.6722 39.1098C42.2244 37.095 45.4259 34.0937 46.5559 31.9243C46.6423 32.7086 46.4326 34.7181 45.4572 35.9538C46.8941 34.5398 47.0042 32.399 46.9125 31.145C47.2742 30.2426 47.5024 29.2353 47.5391 28.0887C47.5732 27.0342 47.492 26.1186 47.3345 25.2975C48.2443 26.5882 49.5527 27.0866 50.2004 29.0516C50.0772 26.5148 48.1841 26.4753 46.7655 23.4007C46.215 22.0471 45.4231 20.8875 44.5396 19.5706Z" fill="black"/>
<path fill-rule="evenodd" clip-rule="evenodd" d="M50.6956 25.3237C51.8097 25.4995 52.6855 25.4996 53.1024 24.3846C49.0069 22.4327 49.041 18.3377 44.3346 16.1917C46.9224 14.2714 46.2251 12.4692 45.0216 10.6511C43.7499 12.9018 41.5579 13.2089 40.2128 12.4769C42.1058 11.7869 42.8218 9.44691 43.9702 8.76474C43.2517 7.99359 42.3341 7.9673 41.2668 8.69656C40.6901 7.14357 38.7864 7.65516 38.5008 7.65516C38.999 8.15362 39.4708 8.80677 39.3817 9.50729C39.185 11.0654 36.6548 10.8137 36.6548 10.8137C37.1661 9.76165 36.9381 9.13464 35.8027 8.5943C35.4566 9.43117 32.7403 10.5592 32.5619 12.2121C32.2893 14.7961 35.3491 16.3649 38.034 17.8208C40.9889 19.4184 39.906 21.1604 38.8336 21.2155C38.2384 23.0519 40.5144 23.3824 41.8096 22.6374C41.8044 22.8813 41.6392 24.3558 39.6544 24.4764C39.8221 25.0589 40.15 25.2477 40.6691 25.4392C40.2809 25.7304 39.1483 25.7724 38.5506 25.7724C38.6214 26.5698 39.4892 27.2126 40.5746 27.3202C40.4881 27.5616 40.0057 27.9498 39.5731 28.0706C40.7451 29.2379 43.8966 28.4691 44.5365 27.7977C44.8302 27.488 45.1893 27.9262 44.838 28.3932C44.4761 28.8706 42.8925 29.4059 41.6077 29.0097C41.4609 29.7285 41.7074 30.0014 41.9093 30.1955C41.9093 30.1955 40.6534 30.3213 40.3283 30.4971C40.4515 31.0375 41.0597 31.3497 41.2721 31.5622C41.0571 31.7459 40.8027 32.1762 40.711 32.5067C41.2879 32.7847 42.8559 33.2176 43.6975 32.2575C44.0383 31.877 44.4106 32.1184 44.0619 32.6037C42.8243 34.3089 39.8641 34.3353 38.8179 33.8027C38.7891 35.138 39.3659 35.4135 40.0607 35.9644C37.9213 38.4278 39.3345 40.6183 37.8216 42.7748C40.6718 42.7748 42.4546 41.2189 42.9528 39.7631C43.0105 40.2798 43.2832 40.7311 44.041 40.8859C43.9832 40.3429 44.1511 39.7919 44.4289 39.2357C45.0058 39.7001 46.0573 39.8077 47.4338 39.8654C45.8737 37.2157 50.2891 34.4978 48.5376 30.8853C48.2781 30.3424 49.0384 29.996 49.1118 30.5497C49.5208 33.6479 51.3405 34.3456 52.8743 33.3803C52.4128 32.8766 52.2214 32.8871 51.9278 32.4279C52.9608 32.7034 53.4853 31.9532 53.7501 31.0139C50.9603 30.0327 52.468 27.6245 50.6956 25.3237ZM50.9314 31.4731C50.9865 31.5622 51.1307 32.5801 51.5214 33.0707C49.4841 32.9395 50.4281 28.6476 48.3908 29.6813C47.8166 29.9699 47.6461 30.6467 47.911 31.2002C49.2429 33.96 46.2067 36.3918 46.3772 38.8107C45.6272 38.8054 44.8486 38.7845 44.3634 37.7745C44.1144 38.2782 43.7132 38.9866 43.4956 39.6686L42.8873 38.6324C42.5098 40.348 40.9104 41.9327 38.755 42.0769C39.7802 40.4451 38.5478 38.2153 41.0545 35.8463C40.7399 35.5944 40.0188 35.1066 39.7593 34.7759C42.8349 35.138 46.0389 32.7061 44.5836 31.5517C43.6319 30.7988 43.2125 32.3624 41.7467 32.1L42.321 31.6042C42.119 31.4049 41.8856 31.1452 41.6471 30.9484C42.2738 30.8723 42.9555 30.4735 42.9555 30.4735L42.5832 29.857C46.183 29.8518 46.2695 27.0972 44.8145 26.987C44.1301 26.9371 43.2386 28.2043 41.023 27.9392C41.3037 27.5982 41.4189 27.0815 41.5553 26.7011C41.0204 26.6512 40.3884 26.6565 39.8851 26.4098C40.9679 26.2709 41.2406 25.9061 42.1399 25.2241L41.0965 24.8411C42.6146 24.0829 42.5175 22.7633 42.5648 21.3887C41.7729 21.8452 40.8342 22.5534 39.8458 22.2255C39.6098 22.1469 39.4551 22.0366 39.4499 21.7901C40.8737 21.2287 41.7808 19.0382 38.3775 17.1964C36.209 16.0238 30.8971 13.4424 34.4944 10.6589C34.9872 10.2812 35.5222 9.94003 35.9731 9.5177C36.5369 9.95057 35.766 11.0262 35.5746 11.4197C35.5746 11.4197 36.7702 11.5404 37.0535 11.5404C38.9071 11.5324 40.8499 10.4359 39.8668 8.332C40.6036 8.4841 40.6901 9.19502 40.9155 9.80107C41.3875 9.481 42.2056 8.79623 42.8426 8.89329C42.3262 10.5382 40.1683 12.0205 38.4876 12.3563C40.1841 13.2797 43.3303 13.9671 44.9849 11.9785C46.1438 14.2268 44.5286 15.1659 42.9423 16.3438C48.9833 19.0984 48.0893 22.1941 52.0536 24.6286C51.5424 24.87 49.2455 24.3846 49.041 24.3558C49.9063 25.4707 50.31 25.9428 50.5565 26.4859C50.7977 26.9949 50.9027 27.5667 51.1412 28.8076C51.33 29.7862 51.6734 30.7622 52.8586 31.4101C52.3945 32.247 51.3615 31.5858 50.9314 31.4731Z" fill="black"/>
<path fill-rule="evenodd" clip-rule="evenodd" d="M22.166 38.2442L23.0287 37.5124L22.8976 37.2501C22.8032 37.0612 22.853 37.0506 22.9527 36.9773L23.4088 36.6388C23.5137 36.5522 23.6239 36.5628 23.7523 36.5942L25.1184 36.9143H23.6764C23.3434 36.9352 23.2463 37.0637 23.1257 37.3103L23.0261 37.5124L22.6564 38.2732C22.5305 38.5355 22.4649 38.8844 22.7953 39.278L23.0575 39.5902L22.5279 40.6631H22.9736L23.3406 39.918C23.3696 39.8918 23.9124 39.396 24.0276 38.8844C23.8703 38.7559 23.7603 38.6668 23.8468 38.4883L24.0119 38.1315C24.0671 38.0135 24.0854 37.9663 24.2426 37.9951L25.6742 38.3047C25.8525 38.3545 26.1148 38.4332 26.3061 38.1446C26.5028 37.8456 26.529 37.8771 26.9852 37.9216L27.7168 38.0003C28.7157 38.0948 29.7147 37.8456 30.1027 37.536C30.2391 37.8456 30.5092 38.0844 30.6349 38.3256C30.6822 38.4148 30.6036 38.5408 30.5432 38.6982L29.7225 40.6605H30.989L31.7049 38.8713C31.7703 38.7009 31.8673 38.5644 31.9407 38.4962L31.529 40.6631H32.7588L33.084 38.5198C33.1548 38.0423 33.1127 37.8901 32.8847 37.6934C32.3734 37.2605 32.3839 36.3529 32.2187 35.802C32.3052 35.7521 32.4075 35.7259 32.528 35.7416C32.7955 35.7651 32.9974 36.4499 33.3121 36.8906C33.9414 37.7747 34.7986 38.7507 35.782 37.3759C35.6875 37.2186 35.5852 37.077 35.4646 36.9405L35.1893 36.6178C35.0295 36.4394 34.2691 35.5684 33.9518 35.2563C33.2307 34.5297 32.1243 34.6398 31.6838 34.9939C30.6848 34.4692 29.6308 35.0201 29.3818 34.9992L27.6618 34.8942C27.583 34.889 27.465 34.8627 27.3811 34.729L27.7011 34.6241C27.4021 33.3779 26.6496 32.3364 25.3359 32.1553C25.3359 32.1553 25.26 31.7619 25.0581 31.6858L24.6648 32.1476C24.5547 32.1633 24.434 32.1974 24.3344 32.2392L22.6564 31.615L23.915 32.8874C23.915 32.8874 23.2621 33.8133 23.0759 34.0022C22.9527 34.1754 22.963 34.3092 23.102 34.4745L23.346 34.7945C23.4718 34.9597 23.6107 34.9546 23.8127 34.8523L24.0879 34.708C24.2085 34.6083 24.6123 34.805 24.7854 34.6477C24.6753 35.0098 24.6202 35.3585 24.594 35.634L23.464 35.4976C23.2174 35.4636 23.1047 35.4976 22.9553 35.6156L21.9903 36.3581C21.6758 36.5995 21.5788 37.0165 21.7727 37.4231L22.166 38.2442ZM31.5003 38.4569L30.7347 40.3457H30.2574L31.0231 38.5172C31.1016 38.2811 30.9523 38.1709 30.7609 37.9138C31.0441 38.0738 31.2486 38.1787 31.592 38.31C31.5631 38.3625 31.5264 38.3913 31.5003 38.4569ZM24.1168 34.367L23.8992 34.4824C23.7471 34.5689 23.6711 34.6083 23.54 34.4455L23.4455 34.325C23.3984 34.2672 23.3827 34.1282 23.4796 34.018L24.4183 32.924L23.5531 32.2131L24.6543 32.6197L25.0581 32.1161C25.1761 32.2158 25.1342 32.5069 25.1342 32.5069C25.5799 32.5069 26.8777 33.1523 26.9276 34.7684C26.9276 34.7684 27.2212 35.2011 27.5962 35.2248L29.5076 35.3402C29.8248 35.3402 30.6167 34.7368 31.6339 35.3061C31.8909 35.1513 32.1662 35.028 32.4494 34.9966C33.3462 34.931 34.0068 35.5553 34.4972 36.185C34.8564 36.6414 35.3493 37.3392 35.3493 37.3392C35.137 37.5912 34.9298 37.6751 34.7542 37.612C34.4892 37.4757 34.4028 37.2631 34.3189 36.9667C34.1852 36.4972 33.6687 36.0958 33.6687 36.0958C33.8443 36.4107 33.881 36.7674 33.9649 37.0953C33.2177 36.3555 33.076 35.4531 32.5543 35.3271C32.3237 35.2694 32.0535 35.369 31.8044 35.6577C32.0667 36.2689 32.0535 36.9773 32.3237 37.4521C32.528 37.8062 32.5727 37.8377 32.6643 37.9164C32.8847 38.0738 32.7614 38.3598 32.7274 38.567L32.4442 40.3431H31.967L32.2816 38.6063C32.3786 38.0764 30.8919 38.0764 30.1316 37.0664C29.4839 37.8245 27.667 37.6357 26.8804 37.5176C26.5631 37.4704 26.2537 37.4914 26.0807 37.8036C25.9785 37.9794 25.808 37.9269 25.7032 37.9007L24.2688 37.5912C24.0172 37.5334 23.907 37.5832 23.797 37.8142L23.5111 38.407C23.4482 38.546 23.4509 38.6484 23.5661 38.7612L23.7025 38.9055C23.6213 39.1887 23.3617 39.4066 23.3617 39.4066L23.0496 39.055C22.8976 38.8767 22.8897 38.6196 23.0103 38.3676L23.4744 37.397C23.5294 37.2894 23.6291 37.174 23.8231 37.174L25.5955 37.1477L25.0529 36.2636C24.649 35.5999 25.3202 34.4168 25.2179 33.858C25.1629 34.6056 24.2584 34.2646 24.1168 34.367ZM22.1924 36.5968L23.0312 35.9567C23.1808 35.8439 23.2804 35.7705 23.4509 35.7915L24.636 35.9489C24.7014 36.2321 24.8902 36.5103 24.8902 36.5103L23.6291 36.2452C23.4509 36.2244 23.3984 36.2321 23.2306 36.3529L22.6328 36.8041C22.5148 36.8959 22.5095 37.0429 22.5777 37.1871L22.6747 37.3944L22.2578 37.7092L22.0978 37.4101C21.9354 37.0927 21.9248 36.8015 22.1924 36.5968Z" fill="black"/>
<path fill-rule="evenodd" clip-rule="evenodd" d="M25.8479 13.8226C26.3067 14.1401 27.1196 14.4786 27.1196 14.4786V13.938L25.3286 13.2534C25.3286 13.2534 25.3286 13.4736 25.8479 13.8226Z" fill="black"/>
<path fill-rule="evenodd" clip-rule="evenodd" d="M27.116 13.1719V12.6314L25.084 11.9048C25.084 11.9048 25.3252 12.1619 25.8444 12.516C26.3032 12.8309 27.116 13.1719 27.116 13.1719Z" fill="black"/>
<path fill-rule="evenodd" clip-rule="evenodd" d="M27.1163 11.9444V11.4015L24.8901 10.583C24.8901 10.583 25.3255 10.9346 25.8446 11.2887C26.3033 11.606 27.1163 11.9444 27.1163 11.9444Z" fill="black"/>
<path fill-rule="evenodd" clip-rule="evenodd" d="M33.3701 19.3243H35.6459C35.5516 18.9937 35.1976 18.6606 34.5342 18.6606C33.905 18.6606 33.5274 19.0225 33.3701 19.3243Z" fill="black"/>
<path fill-rule="evenodd" clip-rule="evenodd" d="M30.989 10.583L28.7681 11.4015V11.9444C28.7681 11.9444 29.581 11.606 30.0398 11.2887C30.5563 10.9346 30.989 10.583 30.989 10.583Z" fill="black"/>
<path fill-rule="evenodd" clip-rule="evenodd" d="M30.5563 13.2534L28.7681 13.9406V14.4811C28.7681 14.4811 29.581 14.1401 30.0398 13.8253C30.5563 13.4736 30.5563 13.2534 30.5563 13.2534Z" fill="black"/>
<path fill-rule="evenodd" clip-rule="evenodd" d="M30.7976 11.9048L28.7656 12.6314V13.1719C28.7656 13.1719 29.581 12.8335 30.0373 12.5186C30.5564 12.1619 30.7976 11.9048 30.7976 11.9048Z" fill="black"/>
<path fill-rule="evenodd" clip-rule="evenodd" d="M21.346 18.6606C20.6826 18.6606 20.3286 18.9937 20.2344 19.3243H22.5127C22.3503 19.0225 21.9778 18.6606 21.346 18.6606Z" fill="black"/>
<path fill-rule="evenodd" clip-rule="evenodd" d="M32.4627 9.1242C32.4627 7.84391 30.3127 6.69751 27.9398 6.69751C25.5669 6.69751 23.4169 7.84391 23.4169 9.1242L23.4667 9.43893L24.4107 14.8773L19.9271 17.4928C19.4498 17.7735 18.8521 18.5448 18.776 19.3214H19.5941C19.7304 18.5448 20.3412 17.6843 21.4871 17.7369C22.5227 17.7919 23.1363 18.4216 23.7446 19.3214L23.902 19.5575L24.1274 19.9116H17.5332C18.0183 20.8849 18.4771 21.9185 18.4771 23.0388V36.7565C18.4771 40.285 21.1856 41.9667 24.1196 41.9667C26.385 41.9667 26.6917 41.8643 27.9424 43.1158C29.188 41.8643 29.4946 41.9667 31.7652 41.9667C34.6967 41.9667 37.4077 40.285 37.4077 36.7565V23.0414C37.4077 21.9211 37.8666 20.8874 38.3516 19.9142H31.7522L31.9803 19.5601L32.1376 19.324C32.7432 18.4241 33.3594 17.7945 34.395 17.7394C35.5357 17.6869 36.1517 18.5474 36.2855 19.324H37.1011C37.0275 18.5474 36.4271 17.7735 35.9526 17.4955L31.469 14.8798L32.4154 9.44153L32.4627 9.1242ZM24.3345 9.74846L27.6802 10.8871V16.1261L25.2157 14.83L24.3345 9.74846ZM25.1579 20.864C25.5984 21.4673 26.3115 21.9132 27.1558 22.0864C27.2267 22.4038 27.3997 22.7527 27.7353 23.0335C27.5963 23.97 27.9974 24.8436 29.0043 25.0745C29.1092 25.552 29.4055 25.9113 29.901 26.0819L29.2009 26.8899C28.9336 27.1995 28.5847 27.2992 28.2964 27.2624L25.171 26.9083C25.3073 26.562 24.9455 26.1606 23.9569 26.331L25.1867 22.8944L24.4368 21.302L23.0158 22.514L22.9109 26.1186L22.3078 25.8222C21.5133 25.4812 21.2826 26.9161 22.0378 26.9214L22.3366 26.924C22.3182 27.0709 22.3629 27.2335 22.4783 27.2835C22.3366 27.3437 22.2947 27.6114 22.4729 27.7058C22.2921 27.7897 22.2684 28.0626 22.4127 28.1806C22.2554 28.4456 22.2318 29.02 22.7797 29.1644C23.2281 29.2825 23.5086 28.7998 23.6004 28.5189L28.4615 30.0249C29.1511 30.2216 29.6388 30.1114 30.2105 29.6104L31.4795 28.5007C31.3195 29.2273 31.5817 29.8806 32.135 30.0983C32.135 30.0983 32.0562 30.7516 32.0799 31.0427H19.4236V23.0414C19.4236 22.2963 19.2086 21.5514 18.9518 20.864H25.1579ZM30.386 23.8991C30.1187 24.4108 30.1448 24.9984 30.4594 25.531L30.2497 25.7355C29.3373 25.6228 28.9781 24.2612 28.9781 24.2612C28.9597 24.3845 28.9493 24.5026 28.9519 24.6232C28.4197 24.4265 28.0839 23.9543 28.1103 23.3064C28.3122 23.4192 28.5377 23.4978 28.7789 23.5398L28.8417 23.141C28.2045 23.0308 27.8323 22.6322 27.6907 22.1598C27.6593 22.1572 27.633 22.1495 27.6041 22.1467C27.7169 22.1546 27.8297 22.1652 27.9449 22.1652C28.3225 22.1652 28.6818 22.1074 29.0175 22.0077C29.2822 22.3855 29.7516 22.6557 30.2236 22.7081C30.1474 23.023 30.1841 23.4139 30.386 23.8991ZM31.7364 27.4985C31.6445 27.6219 31.5712 27.7635 31.524 27.9183L31.0153 28.3852C31.1176 27.6402 30.6169 26.7613 30.1606 26.4019L30.7007 25.872L30.8083 25.9823C30.6273 26.457 30.9813 27.3884 31.7364 27.4985ZM29.2796 27.265L29.6991 26.8532C30.1239 27.2257 30.6851 28.0574 30.5093 28.8496L30.0531 29.2694C29.9586 29.3612 29.8617 29.4267 29.7621 29.487C30.0479 28.7814 29.6834 27.6953 29.2796 27.265ZM28.3776 27.6139H28.3907C28.5428 27.6376 28.7055 27.6114 28.8522 27.551C29.1722 28.0075 29.4212 29.0464 29.0384 29.6943C28.8207 29.6997 28.6085 29.6602 28.4091 29.6025L28.2517 29.5553C28.5744 29.0542 28.5297 28.1674 28.3776 27.6139ZM27.321 27.4828L27.9109 27.5563C28.0054 28.0468 27.9424 28.8943 27.6304 29.3769L26.9434 29.1775C27.2451 28.7683 27.3866 27.9261 27.321 27.4828ZM26.0913 27.3333L26.8071 27.4172C26.8779 27.8107 26.7441 28.6475 26.4742 29.0464L25.7451 28.8365C26.0362 28.4508 26.141 27.7714 26.0913 27.3333ZM23.194 27.1418C22.8611 27.2493 22.7142 27.0079 22.7273 26.8034C23.3802 26.5646 23.6712 26.7195 23.8626 26.8401C24.0383 26.9502 24.1852 27.265 24.421 27.4618C24.3817 27.7294 24.3004 28.1176 24.2035 28.3773C23.5349 28.2069 23.5008 27.6165 23.7498 27.2572C23.6109 27.0946 23.4641 27.0525 23.194 27.1418ZM22.7273 28.4456C22.7273 28.4456 22.9267 28.5295 23.1783 28.5479C23.1495 28.687 23.0419 28.8181 22.8715 28.7814C22.7299 28.7499 22.6669 28.5768 22.7273 28.4456ZM22.0692 26.5305C21.904 26.4203 21.9773 26.1789 22.161 26.1789C22.3629 26.1842 22.6302 26.4124 22.8952 26.5252C22.8952 26.5252 22.2002 26.6196 22.0692 26.5305ZM22.7482 27.9208C22.8926 28.0599 23.3251 28.0075 23.3251 28.0075L23.341 28.094C23.1522 28.346 22.6276 28.2331 22.7482 27.9208ZM23.3304 27.6349C23.0209 27.7582 22.7038 27.5904 22.8007 27.3909C22.945 27.5221 23.3461 27.4566 23.3461 27.4566L23.3304 27.6349ZM23.7866 24.0331L23.194 26.1922L23.3959 22.7081L24.3135 21.9238L24.7803 22.9495L23.6004 26.3338L23.9125 24.0566C23.9413 23.894 23.8128 23.8756 23.7866 24.0331ZM23.8286 26.6512C23.8286 26.6512 24.4892 26.6196 24.6754 26.6905C24.8117 26.7482 24.7201 26.9792 24.5417 26.9529C24.3556 26.9293 23.8286 26.6512 23.8286 26.6512ZM24.8642 27.1759L25.5826 27.265C25.6377 27.6586 25.5354 28.3249 25.2785 28.6974L24.5837 28.4955C24.7673 28.0574 24.8117 27.6455 24.8642 27.1759ZM36.4611 36.7592C36.4611 38.4277 35.6904 39.6948 34.4081 40.3978L34.8671 39.4639H34.4214L33.8313 40.6601C33.2204 40.8911 32.5283 41.0196 31.7626 41.0196C29.4238 41.0196 28.805 41.1141 27.9398 41.9771C27.072 41.1141 26.4532 41.0196 24.117 41.0196C23.3567 41.0196 22.6643 40.8963 22.0561 40.6655H22.0718L22.6617 39.4639H22.2186L21.7021 40.5159C21.5789 40.4582 21.4583 40.3953 21.343 40.3271L21.7677 39.4639H21.3273L21.0125 40.1066C20.011 39.3694 19.421 38.2152 19.421 36.7592V31.5124H36.4559V36.7592H36.4611ZM36.9358 20.864C36.671 21.5514 36.4585 22.2963 36.4585 23.0414V31.0427H35.5278C35.1057 30.6336 34.7491 29.2694 34.7491 29.2694C34.5183 29.7599 34.7831 30.7542 35.0296 31.0427H33.8313C33.5351 30.6413 33.2781 29.2196 33.2781 29.2196C32.9189 29.6287 33.147 30.7332 33.3699 31.0427H32.5728C32.5229 30.4735 32.6856 29.8543 32.6856 29.8543C32.2687 29.7783 31.8256 29.5579 31.8282 29.0962C32.0379 29.2929 32.1244 29.2902 32.4154 29.2851L32.7537 29.0174C31.6315 29.0543 31.5791 27.8212 32.4705 27.244C31.5817 27.2729 30.9183 26.743 31.2408 25.7985C30.6089 25.4707 30.386 24.4002 30.8528 23.9307C30.5146 23.5633 30.4594 22.842 30.6745 22.3514C30.2262 22.3514 29.7228 22.173 29.4422 21.866C29.4212 21.8766 29.395 21.8844 29.3714 21.8924C29.9325 21.6641 30.407 21.3072 30.7269 20.8666H36.9358V20.864ZM33.543 17.0128C32.62 17.1729 31.8256 18.3035 31.1753 19.324L31.1019 19.442H30.407L30.4044 19.5627C30.3336 20.3498 29.5864 21.4174 27.9398 21.4174C27.1794 21.4174 26.6051 21.184 26.212 20.8666C25.8711 20.5885 25.6561 20.2447 25.5512 19.9169C25.5118 19.7989 25.4882 19.6781 25.4778 19.5627L25.4725 19.442H24.7829L24.7095 19.324C24.0566 18.3061 23.2622 17.1754 22.3419 17.0128L24.8564 15.5515L27.9449 17.2305L31.0286 15.5515L33.543 17.0128ZM30.664 14.83L28.2019 16.1261V10.8871L31.5476 9.74846L30.664 14.83ZM27.9424 10.3152L24.2848 8.8697C24.5942 8.1351 26.0284 7.50809 27.9424 7.50809C29.8538 7.50809 31.2854 8.1351 31.5947 8.8697L27.9424 10.3152Z" fill="black"/>
<path fill-rule="evenodd" clip-rule="evenodd" d="M36.0707 26.0348L36.0787 25.6335C34.8489 25.6045 34.5658 24.1538 34.5658 24.1538C34.2066 25.2215 35.1453 26.0191 36.0707 26.0348Z" fill="black"/>
<path fill-rule="evenodd" clip-rule="evenodd" d="M34.5187 28.493L34.3955 28.1125C33.3467 28.3802 32.804 26.7168 32.804 26.7168C32.4684 27.9262 33.6377 28.7815 34.5187 28.493Z" fill="black"/>
<path fill-rule="evenodd" clip-rule="evenodd" d="M35.2473 26.9502C33.9939 27.1496 33.4802 25.6909 33.4802 25.6909C33.3411 26.4859 33.8551 27.2913 34.6863 27.3752C34.4975 28.4114 35.4598 28.9439 36.2935 28.5741L36.1729 28.2121C35.4492 28.4561 34.7702 27.7397 35.2473 26.9502Z" fill="black"/>
<path fill-rule="evenodd" clip-rule="evenodd" d="M34.4971 22.7871L34.5075 22.3857C32.853 22.0447 32.992 20.906 32.992 20.906C32.6355 21.979 33.5741 22.7713 34.4971 22.7871Z" fill="black"/>
<path fill-rule="evenodd" clip-rule="evenodd" d="M24.0144 39.4641L23.4219 40.6655H23.8677L24.4575 39.4641H24.0144Z" fill="black"/>
<path fill-rule="evenodd" clip-rule="evenodd" d="M24.9089 39.4641L24.3188 40.6655H24.7673L25.352 39.4641H24.9089Z" fill="black"/>
<path fill-rule="evenodd" clip-rule="evenodd" d="M28.4903 39.4641L27.9004 40.6655H28.3434L28.936 39.4641H28.4903Z" fill="black"/>
<path fill-rule="evenodd" clip-rule="evenodd" d="M29.3877 39.4641L28.7925 40.6655H29.2409L29.8281 39.4641H29.3877Z" fill="black"/>
<path fill-rule="evenodd" clip-rule="evenodd" d="M27.5959 39.4641L27.0034 40.6655H27.4492L28.0391 39.4641H27.5959Z" fill="black"/>
<path fill-rule="evenodd" clip-rule="evenodd" d="M32.8276 40.6655H33.2733L33.8633 39.4641H33.4175L32.8276 40.6655Z" fill="black"/>
<path fill-rule="evenodd" clip-rule="evenodd" d="M25.8049 39.4641L25.2148 40.6655H25.6605L26.2506 39.4641H25.8049Z" fill="black"/>
<path fill-rule="evenodd" clip-rule="evenodd" d="M26.6974 39.4641L26.1074 40.6655H26.5558L27.1457 39.4641H26.6974Z" fill="black"/>
<path fill-rule="evenodd" clip-rule="evenodd" d="M24.6721 33.0051C24.5908 33.0051 24.52 33.0839 24.52 33.1862C24.52 33.2858 24.5908 33.3671 24.6721 33.3671C24.756 33.3671 24.8294 33.2858 24.8294 33.1862C24.8268 33.0839 24.756 33.0051 24.6721 33.0051Z" fill="black"/>
<path fill-rule="evenodd" clip-rule="evenodd" d="M27.9421 5.88678C29.7776 5.88678 31.2485 6.49543 32.0586 7.14858C32.0586 7.14858 32.3025 5.69005 33.1232 4.40975L31.6443 4.575L30.8709 2.92754L29.3843 3.70143L27.9421 2.26904L26.5001 3.70143L25.0082 2.92754L24.2347 4.575L22.7559 4.40975C23.5791 5.69005 23.8204 7.14858 23.8204 7.14858C24.6333 6.49543 26.1067 5.88678 27.9421 5.88678ZM24.489 5.23089L25.1944 3.73552L26.5001 4.43084L27.9421 3.00626L29.3843 4.43084L30.69 3.73552L31.3874 5.23089L32.2554 5.09713C32.0325 5.51426 31.8646 5.87883 31.7099 6.39043C30.7608 5.83694 29.3502 5.40926 27.9421 5.40926C26.5289 5.40926 25.1209 5.83694 24.1718 6.39043C24.0145 5.87883 23.8492 5.51426 23.6238 5.09713L24.489 5.23089Z" fill="black"/>
<path fill-rule="evenodd" clip-rule="evenodd" d="M29.453 2.94093C29.668 2.95927 29.8593 2.79663 29.8776 2.58416C29.8987 2.36909 29.584 1.79712 29.584 1.79712C29.584 1.79712 29.1147 2.30338 29.099 2.51858C29.078 2.72846 29.2406 2.91998 29.453 2.94093Z" fill="black"/>
<path fill-rule="evenodd" clip-rule="evenodd" d="M31.8755 3.81949C32.067 3.92189 32.3002 3.84577 32.4025 3.65425C32.5074 3.46532 32.4392 2.81738 32.4392 2.81738C32.4392 2.81738 31.8152 3.09816 31.713 3.28955C31.6133 3.47847 31.6868 3.71462 31.8755 3.81949Z" fill="black"/>
<path fill-rule="evenodd" clip-rule="evenodd" d="M26.4295 2.94093C26.6471 2.91998 26.8071 2.73105 26.7887 2.51858C26.7678 2.30338 26.3036 1.79712 26.3036 1.79712C26.3036 1.79712 25.9917 2.37169 26.0101 2.58416C26.0258 2.79663 26.2171 2.95927 26.4295 2.94093Z" fill="black"/>
<path fill-rule="evenodd" clip-rule="evenodd" d="M24.0093 3.81949C24.2007 3.71462 24.2715 3.47847 24.1717 3.28955C24.0721 3.09816 23.4455 2.81738 23.4455 2.81738C23.4455 2.81738 23.38 3.46532 23.4849 3.65425C23.5819 3.84577 23.8179 3.92189 24.0093 3.81949Z" fill="black"/>
<path fill-rule="evenodd" clip-rule="evenodd" d="M53.0738 17.1463C53.5902 16.9626 53.9888 16.4695 54.188 16.0129C52.8744 15.824 49.3846 14.3575 46.5161 15.5512C47.5912 14.5307 48.5561 14.3996 48.6478 12.9305C49.0935 13.2506 49.8461 13.4315 50.2709 12.6681C49.9746 11.7945 49.2273 12.5028 49.1224 12.2614C48.9755 11.9256 50.0637 12.3639 50.2971 11.2279C49.4501 10.9367 49.1984 11.6292 49.0464 11.4692C48.9073 11.3172 49.5839 11.0258 49.0858 10.1104C48.2047 10.6271 48.6635 11.2069 48.4775 11.2725C48.2518 11.3616 48.4302 10.6507 47.4548 10.6848C47.3578 11.7315 48.3698 11.7656 48.2047 11.931C48.0028 12.1329 47.7406 11.3301 47.0039 11.7368C47.017 12.5816 47.7013 13.0459 48.4065 12.8465C48.2913 14.452 46.8177 14.153 45.7217 15.9631C48.0448 17.1542 49.0961 19.2319 50.5252 20.6694C50.9971 20.3338 51.8047 18.8436 51.8047 18.8436C53.3516 20.0425 54.4398 18.8489 54.4398 18.8489C53.9075 18.3031 53.8865 17.8888 53.0738 17.1463ZM50.8189 17.4375C50.9788 17.7917 51.296 19.0272 50.5382 19.9691C49.6756 18.2455 48.4904 16.7685 47.5308 16.131C47.3211 15.9946 47.6462 15.7558 48.2388 15.6771C50.0244 15.3387 52.1193 16.0943 53.1156 16.3593C52.6515 16.7055 52.274 16.863 51.7995 16.9207C52.5232 17.5293 53.0527 18.0435 53.425 18.6154C52.7249 18.7912 52.329 18.3478 50.8189 17.4375Z" fill="black"/>
<path fill-rule="evenodd" clip-rule="evenodd" d="M35.9024 44.2331V42.2708C34.3869 42.9661 32.4598 43.5301 29.9795 43.7532L29.8666 44.4535C30.0764 44.4824 30.3438 44.5086 30.7006 44.5322C29.7827 44.6582 28.595 44.7186 27.9448 44.7186C27.2919 44.7186 26.1068 44.6582 25.1865 44.5322C25.5405 44.5086 25.8078 44.4824 26.0177 44.4535L25.9049 43.7532C23.4245 43.5301 21.4948 42.9661 19.9819 42.2708V44.2331L17.9263 45.078C19.4496 45.8702 21.2012 46.5156 23.2252 47.0377L22.984 47.8588C24.143 48.1998 25.9966 48.546 27.9395 48.546C29.8823 48.546 31.7336 48.1972 32.895 47.8588L32.6564 47.0377C34.678 46.5156 36.4347 45.8702 37.9581 45.078L35.9024 44.2331ZM19.0248 45.1226L20.4119 44.5638V42.9661C21.3033 43.3097 22.4727 43.6665 24.1508 44.0155L23.3642 46.5785C21.6521 46.1851 20.1969 45.6551 19.0248 45.1226ZM27.9421 48.0764C26.3768 48.0764 24.8483 47.843 23.5425 47.5204L24.3737 44.8314C24.9243 44.9599 26.3034 45.1278 27.9421 45.1278C29.5835 45.1278 30.9549 44.9572 31.5081 44.8314L32.3418 47.5204C31.0308 47.843 29.5049 48.0764 27.9421 48.0764ZM32.5228 46.5785L31.7362 44.0155C33.4141 43.6691 34.5836 43.3097 35.475 42.9661V44.5638L36.8595 45.1226C35.6875 45.6551 34.2375 46.1851 32.5228 46.5785Z" fill="black"/>
<path fill-rule="evenodd" clip-rule="evenodd" d="M4.07988 18.8436C4.07988 18.8436 4.88745 20.3338 5.35675 20.6694C6.78831 19.2345 7.84231 17.1567 10.1628 15.9631C9.06415 14.153 7.59069 14.4573 7.48048 12.8465C8.18579 13.0459 8.86755 12.5789 8.8833 11.7368C8.1439 11.3301 7.88173 12.1383 7.68241 11.931C7.5173 11.7604 8.52667 11.7315 8.43235 10.6848C7.45693 10.6533 7.63518 11.3616 7.40711 11.2725C7.22352 11.2069 7.68241 10.6244 6.79885 10.1104C6.30328 11.0286 6.98231 11.3172 6.84075 11.4692C6.69139 11.6292 6.43442 10.9393 5.59003 11.2279C5.81824 12.3639 6.91152 11.9256 6.76476 12.2614C6.6599 12.5028 5.91516 11.7945 5.62152 12.6681C6.04111 13.4342 6.79625 13.2532 7.23926 12.9331C7.33373 14.4048 8.296 14.5281 9.37354 15.5512C6.5026 14.3575 3.01275 15.824 1.69385 16.0155C1.89578 16.4695 2.29429 16.9626 2.81081 17.141C1.99804 17.8914 1.97696 18.3059 1.44482 18.8489C1.44482 18.8489 2.53031 20.0425 4.07988 18.8436ZM2.45419 18.618C2.82916 18.046 3.35622 17.5293 4.08508 16.9233C3.60785 16.863 3.23288 16.7055 2.76619 16.3593C3.76514 16.0943 5.86273 15.3361 7.65093 15.6771C8.23822 15.7558 8.5687 15.9946 8.35362 16.131C7.39396 16.7685 6.20622 18.2455 5.34361 19.9691C4.58846 19.0272 4.9084 17.7943 5.06309 17.4401C3.55541 18.3478 3.1621 18.7912 2.45419 18.618Z" fill="black"/>
<path fill-rule="evenodd" clip-rule="evenodd" d="M26.686 17.75V18.6132C26.9824 18.2538 27.5592 18.3245 27.5592 18.3245V19.5707C27.5592 19.5707 27.5382 20.1847 27.3232 20.4469H27.9447H28.5661C28.3484 20.1847 28.3301 19.5707 28.3301 19.5707V18.3271C28.3301 18.3271 28.9042 18.2564 29.2006 18.6157V17.7526H27.9447H26.686V17.75Z" fill="black"/>
<path d="M73.6842 31.8562V23.5209H78.6042V20.4877H65.1816V23.5209H70.1016V31.8562H73.6842ZM83.501 27.1034V20.4877H80.0379V31.8562H83.0951L89.0658 25.2405V31.8562H92.529V20.4877H89.4719L83.501 27.1034ZM104.18 27.6289V31.8562H107.642V20.4877H104.18V24.6434H98.6148V20.4877H95.1517V31.8562H98.6148V27.6289H104.18ZM117.288 31.8562C118.075 31.8562 118.792 31.7846 119.461 31.5934C121.253 31.092 122.421 29.6351 122.421 27.6526C122.421 25.7659 121.42 24.4523 119.819 23.8552C119.054 23.5686 118.147 23.5447 117.288 23.5447H113.729V20.4877H110.265V31.8562H117.288ZM116.69 26.2197C117.168 26.2197 117.621 26.2197 118.028 26.363C118.601 26.554 118.935 27.0318 118.935 27.605C118.935 28.2021 118.601 28.7037 118.051 28.9424C117.669 29.1097 117.288 29.1097 116.69 29.1097H113.729V26.2197H116.69ZM128.632 27.5573L132.763 31.8562H137.373L131.617 25.933L137.158 20.4877H132.811L128.632 24.7629H127.676V20.4877H124.214V31.8562H127.676V27.5573H128.632ZM144.498 20.1772C139.841 20.1772 137.046 22.8044 137.046 26.1957C137.046 29.5873 139.841 32.2145 144.498 32.2145C149.132 32.2145 151.927 29.5873 151.927 26.1957C151.927 22.8044 149.132 20.1772 144.498 20.1772ZM144.498 29.444C142.182 29.444 140.702 28.0587 140.702 26.1957C140.702 24.333 142.182 22.9715 144.498 22.9715C146.791 22.9715 148.295 24.333 148.295 26.1957C148.295 28.0587 146.791 29.444 144.498 29.444ZM163.46 19.8428H159.997V20.9892C155.65 21.0848 153.047 22.9238 153.047 26.1719C153.047 29.4201 155.65 31.1158 159.997 31.2114V32.3578H163.46V31.2114C167.83 31.1158 170.434 29.4201 170.434 26.1719C170.434 22.9238 167.83 21.0848 163.46 20.9892V19.8428ZM159.997 28.7753C157.608 28.6797 156.558 27.7004 156.558 26.1719C156.558 24.6434 157.608 23.5447 159.997 23.4493V28.7753ZM163.46 23.4493C165.873 23.5447 166.899 24.6434 166.899 26.1719C166.899 27.7004 165.873 28.6797 163.46 28.7753V23.4493ZM181.956 19.8428H178.492V20.9892C174.146 21.0848 171.543 22.9238 171.543 26.1719C171.543 29.4201 174.146 31.1158 178.492 31.2114V32.3578H181.956V31.2114C186.327 31.1158 188.929 29.4201 188.929 26.1719C188.929 22.9238 186.327 21.0848 181.956 20.9892V19.8428ZM178.492 28.7753C176.104 28.6797 175.053 27.7004 175.053 26.1719C175.053 24.6434 176.104 23.5447 178.492 23.4493V28.7753ZM181.956 23.4493C184.368 23.5447 185.395 24.6434 185.395 26.1719C185.395 27.7004 184.368 28.6797 181.956 28.7753V23.4493Z" fill="black"/>
</g>
<defs>
<clipPath id="clip0_51_102">
<rect width="189" height="49.6009" fill="white"/>
</clipPath>
</defs>
</svg>
