<?xml version="1.0" encoding="utf-8"?>
<!-- Generator: Adobe Illustrator 16.0.3, SVG Export Plug-In . SVG Version: 6.00 Build 0)  -->
<!DOCTYPE svg PUBLIC "-//W3C//DTD SVG 1.1//EN" "http://www.w3.org/Graphics/SVG/1.1/DTD/svg11.dtd">
<svg version="1.1" id="Слой_1" xmlns="http://www.w3.org/2000/svg" xmlns:xlink="http://www.w3.org/1999/xlink" x="0px" y="0px"
	 width="841.89px" height="595.28px" viewBox="0 0 841.89 595.28" enable-background="new 0 0 841.89 595.28" xml:space="preserve">
<polygon fill="none" stroke="#000000" stroke-width="6" stroke-miterlimit="10" points="14.808,486.735 285.356,573 822.342,573 
	822.342,24.411 14.808,24.411 "/>
<line fill="none" stroke="#000000" stroke-width="9" stroke-miterlimit="10" x1="364.75" y1="283.25" x2="339.25" y2="283.25"/>
<line fill="none" stroke="#000000" stroke-width="9" stroke-miterlimit="10" x1="364.5" y1="418.862" x2="339" y2="418.862"/>
<polyline fill="none" stroke="#000000" stroke-width="8" stroke-miterlimit="10" points="361.5,26.75 361.5,141 336,141 "/>
<line fill="none" stroke="#000000" stroke-width="9" stroke-miterlimit="10" x1="239.416" y1="283.25" x2="230.5" y2="283.25"/>
<line fill="none" stroke="#000000" stroke-width="9" stroke-miterlimit="10" x1="238.033" y1="141" x2="229.117" y2="141"/>
<line fill="none" stroke="#000000" stroke-width="9" stroke-miterlimit="10" x1="22.5" y1="283.25" x2="13.583" y2="283.25"/>
<line fill="none" stroke="#000000" stroke-width="9" stroke-miterlimit="10" x1="22.25" y1="141" x2="13.333" y2="141"/>
<line fill="none" stroke="#000000" stroke-width="9" stroke-miterlimit="10" x1="127.667" y1="283.25" x2="118.75" y2="283.25"/>
<line fill="none" stroke="#000000" stroke-width="9" stroke-miterlimit="10" x1="128.5" y1="141" x2="119.583" y2="141"/>
<line fill="none" stroke="#000000" stroke-width="9" stroke-miterlimit="10" x1="239.416" y1="418.862" x2="230.5" y2="418.862"/>
<line fill="none" stroke="#000000" stroke-width="9" stroke-miterlimit="10" x1="22.25" y1="418.862" x2="13.333" y2="418.862"/>
<line fill="none" stroke="#000000" stroke-width="9" stroke-miterlimit="10" x1="124.25" y1="418.862" x2="115.333" y2="418.862"/>
<line fill="none" stroke="#000000" stroke-width="9" stroke-miterlimit="10" x1="511.833" y1="418.862" x2="500.513" y2="418.862"/>
<polyline fill="none" stroke="#000000" stroke-width="3" stroke-miterlimit="10" points="502.839,348.915 502.839,415.658 
	360.75,415.658 "/>
<line fill="none" stroke="#000000" stroke-width="9" stroke-miterlimit="10" x1="514.32" y1="283.25" x2="503.001" y2="283.25"/>
<line fill="none" stroke="#000000" stroke-width="3" stroke-miterlimit="10" x1="507.496" y1="283.25" x2="526.75" y2="283.25"/>
<polyline fill="none" stroke="#000000" stroke-width="3" stroke-miterlimit="10" points="502.839,144.465 502.839,283.05 
	502.839,296.908 502.839,283.05 360.75,283.05 360.75,415.658 360.75,144.465 "/>
<line fill="none" stroke="#000000" stroke-width="9" stroke-miterlimit="10" x1="512.255" y1="144.334" x2="500.935" y2="144.334"/>
<polyline fill="none" stroke="#000000" stroke-width="9" stroke-miterlimit="10" points="731.308,53.25 731.308,418.862 
	755.667,418.862 "/>
<line fill="none" stroke="#000000" stroke-width="3" stroke-miterlimit="10" x1="732.084" y1="415.658" x2="765.667" y2="415.658"/>
<line fill="none" stroke="#000000" stroke-width="3" stroke-miterlimit="10" x1="794.667" y1="415.658" x2="822.334" y2="415.658"/>
<line fill="none" stroke="#000000" stroke-width="9" stroke-miterlimit="10" x1="621.917" y1="418.861" x2="613.001" y2="418.861"/>
<line fill="none" stroke="#000000" stroke-width="3" stroke-miterlimit="10" x1="119.792" y1="483.333" x2="119.792" y2="520.21"/>
<polyline fill="none" stroke="#000000" stroke-width="3" stroke-miterlimit="10" points="22.25,418.862 119.792,418.862 
	119.792,457.667 "/>
<line fill="none" stroke="#000000" stroke-width="9" stroke-miterlimit="10" x1="506.596" y1="98.333" x2="506.596" y2="53"/>
<line fill="none" stroke="#000000" stroke-width="3" stroke-miterlimit="10" x1="14.808" y1="71" x2="81.333" y2="71"/>
<polyline fill="none" stroke="#000000" stroke-width="3" stroke-miterlimit="10" points="111.25,71 124.042,71 124.042,26.75 "/>
<line fill="none" stroke="#000000" stroke-width="3" stroke-miterlimit="10" x1="230.5" y1="24.667" x2="230.5" y2="83.875"/>
<polyline fill="none" stroke="#000000" stroke-width="3" stroke-miterlimit="10" points="230.5,125.833 230.5,141 336,141 "/>
<rect x="605.333" y="63.5" fill="#FFFFFF" stroke="#000000" stroke-width="3" stroke-miterlimit="10" width="115.667" height="49.5"/>
<rect x="605.333" y="127" fill="#FFFFFF" stroke="#000000" stroke-width="3" stroke-miterlimit="10" width="115.667" height="49.5"/>
<rect x="605.333" y="191" fill="#FFFFFF" stroke="#000000" stroke-width="3" stroke-miterlimit="10" width="115.667" height="49.5"/>
<rect x="373.5" y="294.917" fill="#FFFFFF" stroke="#000000" stroke-width="3" stroke-miterlimit="10" width="116.5" height="49.5"/>
<rect x="425.209" y="314" fill="none" width="22.5" height="17.5"/>
<text transform="matrix(1 0 0 1 425.209 326.8877)" font-family="'ArialMT'" font-size="18">23</text>
<rect x="653.499" y="208.662" fill="none" width="21.5" height="17.5"/>
<text transform="matrix(1 0 0 1 653.499 221.5498)" font-family="'ArialMT'" font-size="18">19</text>
<rect x="653.624" y="143" fill="none" width="21.251" height="17.5"/>
<text transform="matrix(1 0 0 1 653.624 155.8877)" font-family="'ArialMT'" font-size="18">20</text>
<rect x="652.749" y="79.5" fill="none" width="23.001" height="17.5"/>
<text transform="matrix(1 0 0 1 652.749 92.3877)" font-family="'ArialMT'" font-size="18">21</text>
</svg>
